<svg xmlns="http://www.w3.org/2000/svg" viewBox="0 0 50 50">
  <defs>
    <style>
      .cls-1 {
        fill: #fff;
      }

      .cls-2 {
        fill: #759e4f;
      }
    </style>
  </defs>
  <g id="agriculture-02" transform="translate(18030 -4527)">
    <rect id="Rectangle_1533" data-name="Rectangle 1533" class="cls-1" width="50" height="50" transform="translate(-18030 4527)"/>
    <g id="agriculture" transform="translate(-19975.59 3792.048)">
      <g id="wheat-grains" transform="translate(1963.004 741.854)">
        <g id="Group_258" data-name="Group 258" transform="translate(0)">
          <path id="Path_341" data-name="Path 341" class="cls-2" d="M21.851,9.3a.9.9,0,0,0,1.377,0,7.366,7.366,0,0,0,1.912-4.494A7.367,7.367,0,0,0,23.229.319a.9.9,0,0,0-1.377,0A7.366,7.366,0,0,0,19.94,4.811,7.366,7.366,0,0,0,21.851,9.3Z" transform="translate(-15.191)"/>
          <path id="Path_342" data-name="Path 342" class="cls-2" d="M21.163,17.957c.141.006,3.527.141,5.525-1.856a7.37,7.37,0,0,0,1.826-4.529.9.9,0,0,0-.974-.973,7.376,7.376,0,0,0-4.531,1.825A7.61,7.61,0,0,0,21.161,17.3a7.6,7.6,0,0,0-1.847-4.874,7.364,7.364,0,0,0-4.53-1.825.9.9,0,0,0-.973.974A7.365,7.365,0,0,0,15.636,16.1C17.636,18.1,21.021,17.963,21.163,17.957Z" transform="translate(-13.808 -2.39)"/>
          <path id="Path_343" data-name="Path 343" class="cls-2" d="M23.01,21.677a7.608,7.608,0,0,0-1.846,4.874,7.6,7.6,0,0,0-1.847-4.874,7.364,7.364,0,0,0-4.53-1.825.9.9,0,0,0-.973.974,7.364,7.364,0,0,0,1.825,4.528c2,2,5.382,1.862,5.525,1.856s3.527.143,5.525-1.856a7.366,7.366,0,0,0,1.826-4.529.9.9,0,0,0-.974-.972A7.363,7.363,0,0,0,23.01,21.677Z" transform="translate(-13.809 -4.476)"/>
          <path id="Path_344" data-name="Path 344" class="cls-2" d="M23.01,30.931A7.607,7.607,0,0,0,21.163,35.8a7.6,7.6,0,0,0-1.847-4.874,7.355,7.355,0,0,0-4.529-1.825.9.9,0,0,0-.974.972,7.363,7.363,0,0,0,1.825,4.529A7.388,7.388,0,0,0,20.2,36.436V41.6a.994.994,0,1,0,1.984,0v-5.17a7.342,7.342,0,0,0,4.5-1.823,7.367,7.367,0,0,0,1.826-4.529.9.9,0,0,0-.974-.973A7.354,7.354,0,0,0,23.01,30.931Z" transform="translate(-13.809 -6.563)"/>
        </g>
      </g>
      <g id="wheat-grains-2" data-name="wheat-grains" transform="translate(1987.432 757.929)">
        <g id="Group_258-2" data-name="Group 258" transform="translate(0)">
          <path id="Path_341-2" data-name="Path 341" class="cls-2" d="M21,5.161a.5.5,0,0,0,.764,0,4.086,4.086,0,0,0,1.061-2.493A4.087,4.087,0,0,0,21.765.177a.5.5,0,0,0-.764,0A4.086,4.086,0,0,0,19.94,2.669,4.086,4.086,0,0,0,21,5.161Z" transform="translate(-17.306 0)"/>
          <path id="Path_342-2" data-name="Path 342" class="cls-2" d="M17.888,14.679a4.509,4.509,0,0,0,3.064-1.029,4.088,4.088,0,0,0,1.013-2.512.5.5,0,0,0-.54-.54,4.092,4.092,0,0,0-2.513,1.012,4.221,4.221,0,0,0-1.024,2.7,4.217,4.217,0,0,0-1.025-2.7A4.084,4.084,0,0,0,14.349,10.6a.5.5,0,0,0-.54.54,4.085,4.085,0,0,0,1.012,2.511A4.513,4.513,0,0,0,17.888,14.679Z" transform="translate(-13.808 -6.044)"/>
          <path id="Path_343-2" data-name="Path 343" class="cls-2" d="M18.913,20.863a4.22,4.22,0,0,0-1.024,2.7,4.216,4.216,0,0,0-1.025-2.7,4.084,4.084,0,0,0-2.513-1.012.5.5,0,0,0-.54.54A4.085,4.085,0,0,0,14.824,22.9a4.506,4.506,0,0,0,3.064,1.029A4.5,4.5,0,0,0,20.953,22.9a4.086,4.086,0,0,0,1.013-2.512.5.5,0,0,0-.54-.539A4.084,4.084,0,0,0,18.913,20.863Z" transform="translate(-13.809 -11.322)"/>
          <path id="Path_344-2" data-name="Path 344" class="cls-2" d="M18.913,30.117a4.219,4.219,0,0,0-1.024,2.7,4.215,4.215,0,0,0-1.025-2.7A4.08,4.08,0,0,0,14.352,29.1a.5.5,0,0,0-.54.539,4.084,4.084,0,0,0,1.012,2.512,4.1,4.1,0,0,0,2.532,1.015v2.865a.552.552,0,1,0,1.1,0V33.167a4.072,4.072,0,0,0,2.5-1.011,4.086,4.086,0,0,0,1.013-2.512.5.5,0,0,0-.54-.54A4.079,4.079,0,0,0,18.913,30.117Z" transform="translate(-13.809 -16.6)"/>
        </g>
      </g>
      <g id="wheat-grains-3" data-name="wheat-grains" transform="translate(1946.23 753.444)">
        <g id="Group_258-3" data-name="Group 258" transform="translate(0)">
          <path id="Path_341-3" data-name="Path 341" class="cls-2" d="M21.238,6.317a.613.613,0,0,0,.935,0,5,5,0,0,0,1.3-3.051,5,5,0,0,0-1.3-3.05.613.613,0,0,0-.935,0,5,5,0,0,0-1.3,3.05A5,5,0,0,0,21.238,6.317Z" transform="translate(-16.716)"/>
          <path id="Path_342-3" data-name="Path 342" class="cls-2" d="M18.8,15.594a5.519,5.519,0,0,0,3.751-1.26,5,5,0,0,0,1.239-3.074.612.612,0,0,0-.661-.66,5.008,5.008,0,0,0-3.076,1.239A5.166,5.166,0,0,0,18.8,15.147a5.161,5.161,0,0,0-1.254-3.309A5,5,0,0,0,14.471,10.6a.611.611,0,0,0-.66.661,5,5,0,0,0,1.239,3.074A5.524,5.524,0,0,0,18.8,15.594Z" transform="translate(-13.808 -5.025)"/>
          <path id="Path_343-3" data-name="Path 343" class="cls-2" d="M20.056,21.09A5.165,5.165,0,0,0,18.8,24.4a5.161,5.161,0,0,0-1.254-3.309,5,5,0,0,0-3.076-1.239.611.611,0,0,0-.66.661,5,5,0,0,0,1.239,3.074,5.515,5.515,0,0,0,3.751,1.26,5.51,5.51,0,0,0,3.751-1.26,5,5,0,0,0,1.239-3.075.611.611,0,0,0-.661-.66A5,5,0,0,0,20.056,21.09Z" transform="translate(-13.809 -9.412)"/>
          <path id="Path_344-3" data-name="Path 344" class="cls-2" d="M20.056,30.344A5.164,5.164,0,0,0,18.8,33.653a5.16,5.16,0,0,0-1.254-3.309,4.994,4.994,0,0,0-3.074-1.239.612.612,0,0,0-.661.66,5,5,0,0,0,1.239,3.074,5.016,5.016,0,0,0,3.1,1.242v3.506a.675.675,0,1,0,1.347,0v-3.51a4.985,4.985,0,0,0,3.055-1.238,5,5,0,0,0,1.239-3.074.612.612,0,0,0-.661-.66A4.993,4.993,0,0,0,20.056,30.344Z" transform="translate(-13.809 -13.8)"/>
        </g>
      </g>
    </g>
  </g>
</svg>
