<svg xmlns="http://www.w3.org/2000/svg" viewBox="0 0 50 50">
  <defs>
    <style>
      .cls-1 {
        fill: #fff;
      }

      .cls-2 {
        fill: #759e4f;
      }
    </style>
  </defs>
  <g id="agriculture-01" transform="translate(17976 -4448)">
    <rect id="Rectangle_1533" data-name="Rectangle 1533" class="cls-1" width="50" height="50" transform="translate(-17976 4448)"/>
    <g id="agriculture" transform="translate(-19960.266 3688.254)">
      <g id="wheat-grains" transform="translate(1991.266 784.677)">
        <g id="Group_258" data-name="Group 258" transform="translate(0)">
          <path id="Path_341" data-name="Path 341" class="cls-2" d="M21.26,6.426a.624.624,0,0,0,.951,0,5.088,5.088,0,0,0,1.321-3.1,5.088,5.088,0,0,0-1.32-3.1.624.624,0,0,0-.951,0,5.087,5.087,0,0,0-1.321,3.1A5.087,5.087,0,0,0,21.26,6.426Z" transform="translate(-16.66)"/>
          <path id="Path_342" data-name="Path 342" class="cls-2" d="M18.888,15.68A5.615,5.615,0,0,0,22.7,14.4a5.09,5.09,0,0,0,1.261-3.128.622.622,0,0,0-.673-.672,5.1,5.1,0,0,0-3.129,1.26,5.256,5.256,0,0,0-1.275,3.366,5.251,5.251,0,0,0-1.276-3.366,5.086,5.086,0,0,0-3.129-1.26.622.622,0,0,0-.672.672A5.087,5.087,0,0,0,15.07,14.4,5.619,5.619,0,0,0,18.888,15.68Z" transform="translate(-13.808 -4.928)"/>
          <path id="Path_343" data-name="Path 343" class="cls-2" d="M20.164,21.111a5.255,5.255,0,0,0-1.275,3.366,5.25,5.25,0,0,0-1.276-3.366,5.086,5.086,0,0,0-3.129-1.26.622.622,0,0,0-.672.672,5.086,5.086,0,0,0,1.26,3.127,5.61,5.61,0,0,0,3.816,1.282A5.606,5.606,0,0,0,22.7,23.651a5.087,5.087,0,0,0,1.261-3.128.622.622,0,0,0-.673-.671A5.085,5.085,0,0,0,20.164,21.111Z" transform="translate(-13.809 -9.231)"/>
          <path id="Path_344" data-name="Path 344" class="cls-2" d="M20.164,30.365a5.254,5.254,0,0,0-1.275,3.366,5.249,5.249,0,0,0-1.276-3.366,5.08,5.08,0,0,0-3.128-1.26.623.623,0,0,0-.673.671,5.085,5.085,0,0,0,1.26,3.128,5.1,5.1,0,0,0,3.153,1.263v3.567a.687.687,0,1,0,1.37,0V34.164A5.071,5.071,0,0,0,22.7,32.9a5.088,5.088,0,0,0,1.261-3.128.622.622,0,0,0-.673-.672A5.079,5.079,0,0,0,20.164,30.365Z" transform="translate(-13.809 -13.535)"/>
        </g>
      </g>
      <g id="wheat-grains-2" data-name="wheat-grains" transform="translate(2007.241 759.746)">
        <g id="Group_258-2" data-name="Group 258" transform="translate(0)">
          <path id="Path_341-2" data-name="Path 341" class="cls-2" d="M22.58,12.852a1.247,1.247,0,0,0,1.9,0,10.175,10.175,0,0,0,2.641-6.207,10.177,10.177,0,0,0-2.64-6.2,1.247,1.247,0,0,0-1.9,0A10.175,10.175,0,0,0,19.94,6.646,10.174,10.174,0,0,0,22.58,12.852Z" transform="translate(-13.38 0)"/>
          <path id="Path_342-2" data-name="Path 342" class="cls-2" d="M23.967,20.764c.195.009,4.872.195,7.631-2.563a10.181,10.181,0,0,0,2.522-6.255A1.244,1.244,0,0,0,32.774,10.6a10.189,10.189,0,0,0-6.258,2.521c-2.06,2.063-2.476,5.2-2.55,6.732-.074-1.533-.49-4.67-2.552-6.732A10.171,10.171,0,0,0,15.156,10.6a1.244,1.244,0,0,0-1.344,1.345,10.174,10.174,0,0,0,2.52,6.254C19.1,20.958,23.771,20.772,23.967,20.764Z" transform="translate(-13.808 0.74)"/>
          <path id="Path_343-2" data-name="Path 343" class="cls-2" d="M26.517,22.374c-2.06,2.063-2.476,5.2-2.55,6.732-.074-1.534-.49-4.67-2.552-6.732a10.171,10.171,0,0,0-6.257-2.52A1.244,1.244,0,0,0,13.814,21.2a10.172,10.172,0,0,0,2.52,6.254c2.759,2.759,7.434,2.572,7.631,2.563.195.01,4.872.2,7.631-2.563A10.175,10.175,0,0,0,34.118,21.2a1.244,1.244,0,0,0-1.346-1.343A10.171,10.171,0,0,0,26.517,22.374Z" transform="translate(-13.808 1.386)"/>
          <path id="Path_344-2" data-name="Path 344" class="cls-2" d="M26.517,31.628c-2.06,2.063-2.476,5.2-2.55,6.732-.074-1.535-.49-4.67-2.552-6.732a10.16,10.16,0,0,0-6.255-2.521,1.245,1.245,0,0,0-1.346,1.343,10.17,10.17,0,0,0,2.52,6.255,10.206,10.206,0,0,0,6.307,2.527v7.134a1.373,1.373,0,1,0,2.741,0V39.225A10.141,10.141,0,0,0,31.6,36.706a10.176,10.176,0,0,0,2.522-6.255,1.244,1.244,0,0,0-1.346-1.344A10.158,10.158,0,0,0,26.517,31.628Z" transform="translate(-13.808 2.032)"/>
        </g>
      </g>
    </g>
  </g>
</svg>
