<svg xmlns="http://www.w3.org/2000/svg" viewBox="0 0 50 50">
  <defs>
    <style>
      .cls-1 {
        fill: #fff;
      }

      .cls-2 {
        fill: #759e4f;
      }
    </style>
  </defs>
  <g id="agriculture-03" transform="translate(18030 -4527)">
    <rect id="Rectangle_1533" data-name="Rectangle 1533" class="cls-1" width="50" height="50" transform="translate(-18030 4527)"/>
    <g id="agriculture" transform="translate(-19806.129 3427.491)">
      <g id="wheat-grains" transform="translate(1792.391 1106.854)">
        <g id="Group_258" data-name="Group 258" transform="translate(0)">
          <path id="Path_341" data-name="Path 341" class="cls-2" d="M21.814,9.122a.885.885,0,0,0,1.35,0,7.222,7.222,0,0,0,1.875-4.406,7.223,7.223,0,0,0-1.874-4.4.885.885,0,0,0-1.35,0,7.222,7.222,0,0,0-1.875,4.4A7.221,7.221,0,0,0,21.814,9.122Z" transform="translate(-15.284)"/>
          <path id="Path_342" data-name="Path 342" class="cls-2" d="M21.018,17.813c.138.006,3.458.138,5.416-1.819a7.226,7.226,0,0,0,1.79-4.44.883.883,0,0,0-.955-.954,7.232,7.232,0,0,0-4.442,1.789,7.461,7.461,0,0,0-1.81,4.778,7.453,7.453,0,0,0-1.811-4.778A7.219,7.219,0,0,0,14.765,10.6a.883.883,0,0,0-.954.954A7.221,7.221,0,0,0,15.6,15.993C17.561,17.951,20.879,17.819,21.018,17.813Z" transform="translate(-13.808 -2.551)"/>
          <path id="Path_343" data-name="Path 343" class="cls-2" d="M22.829,21.641a7.459,7.459,0,0,0-1.81,4.778,7.452,7.452,0,0,0-1.811-4.778,7.219,7.219,0,0,0-4.441-1.789.883.883,0,0,0-.954.954A7.219,7.219,0,0,0,15.6,25.245c1.958,1.958,5.276,1.825,5.416,1.819s3.458.14,5.416-1.819a7.222,7.222,0,0,0,1.79-4.44.883.883,0,0,0-.955-.953A7.219,7.219,0,0,0,22.829,21.641Z" transform="translate(-13.809 -4.777)"/>
          <path id="Path_344" data-name="Path 344" class="cls-2" d="M22.829,30.895a7.458,7.458,0,0,0-1.81,4.778,7.451,7.451,0,0,0-1.811-4.778,7.211,7.211,0,0,0-4.44-1.789.884.884,0,0,0-.955.953A7.218,7.218,0,0,0,15.6,34.5a7.244,7.244,0,0,0,4.476,1.793v5.063a.975.975,0,1,0,1.945,0V36.287A7.2,7.2,0,0,0,26.434,34.5a7.223,7.223,0,0,0,1.79-4.44.883.883,0,0,0-.955-.954A7.21,7.21,0,0,0,22.829,30.895Z" transform="translate(-13.809 -7.005)"/>
        </g>
      </g>
      <g id="wheat-grains-2" data-name="wheat-grains" transform="translate(1777 1122.613)">
        <g id="Group_258-2" data-name="Group 258" transform="translate(0)">
          <path id="Path_341-2" data-name="Path 341" class="cls-2" d="M20.979,5.06a.491.491,0,0,0,.749,0,4.006,4.006,0,0,0,1.04-2.444A4.006,4.006,0,0,0,21.729.174a.491.491,0,0,0-.749,0,4.006,4.006,0,0,0-1.04,2.443A4.005,4.005,0,0,0,20.979,5.06Z" transform="translate(-17.357 0)"/>
          <path id="Path_342-2" data-name="Path 342" class="cls-2" d="M17.807,14.6a4.421,4.421,0,0,0,3-1.009,4.008,4.008,0,0,0,.993-2.463.49.49,0,0,0-.53-.529,4.011,4.011,0,0,0-2.464.992,4.138,4.138,0,0,0-1,2.65,4.134,4.134,0,0,0-1-2.65,4,4,0,0,0-2.463-.992.49.49,0,0,0-.529.529A4.005,4.005,0,0,0,14.8,13.59,4.425,4.425,0,0,0,17.807,14.6Z" transform="translate(-13.808 -6.134)"/>
          <path id="Path_343-2" data-name="Path 343" class="cls-2" d="M18.813,20.843a4.137,4.137,0,0,0-1,2.65,4.133,4.133,0,0,0-1-2.65,4,4,0,0,0-2.463-.992.49.49,0,0,0-.529.529,4,4,0,0,0,.992,2.462,4.417,4.417,0,0,0,3,1.009,4.414,4.414,0,0,0,3-1.009,4.006,4.006,0,0,0,.993-2.463.49.49,0,0,0-.53-.529A4,4,0,0,0,18.813,20.843Z" transform="translate(-13.809 -11.489)"/>
          <path id="Path_344-2" data-name="Path 344" class="cls-2" d="M18.813,30.1a4.137,4.137,0,0,0-1,2.65,4.133,4.133,0,0,0-1-2.65,4,4,0,0,0-2.463-.992.49.49,0,0,0-.53.529A4,4,0,0,0,14.8,32.1a4.018,4.018,0,0,0,2.483.995V35.9a.541.541,0,1,0,1.079,0V33.088a3.993,3.993,0,0,0,2.447-.991,4.006,4.006,0,0,0,.993-2.463.49.49,0,0,0-.53-.529A4,4,0,0,0,18.813,30.1Z" transform="translate(-13.809 -16.845)"/>
        </g>
      </g>
      <g id="wheat-grains-3" data-name="wheat-grains" transform="translate(1816.339 1118.217)">
        <g id="Group_258-3" data-name="Group 258" transform="translate(0)">
          <path id="Path_341-3" data-name="Path 341" class="cls-2" d="M21.212,6.193a.6.6,0,0,0,.917,0A4.9,4.9,0,0,0,23.4,3.2,4.9,4.9,0,0,0,22.129.212a.6.6,0,0,0-.917,0A4.9,4.9,0,0,0,19.94,3.2,4.9,4.9,0,0,0,21.212,6.193Z" transform="translate(-16.779)"/>
          <path id="Path_342-3" data-name="Path 342" class="cls-2" d="M18.7,15.5a5.411,5.411,0,0,0,3.677-1.235A4.906,4.906,0,0,0,23.6,11.246a.6.6,0,0,0-.649-.647,4.91,4.91,0,0,0-3.016,1.215A5.065,5.065,0,0,0,18.7,15.058a5.06,5.06,0,0,0-1.229-3.244A4.9,4.9,0,0,0,14.458,10.6a.6.6,0,0,0-.647.648,4.9,4.9,0,0,0,1.215,3.014A5.416,5.416,0,0,0,18.7,15.5Z" transform="translate(-13.808 -5.134)"/>
          <path id="Path_343-3" data-name="Path 343" class="cls-2" d="M19.933,21.066A5.064,5.064,0,0,0,18.7,24.31a5.059,5.059,0,0,0-1.229-3.244,4.9,4.9,0,0,0-3.015-1.215.6.6,0,0,0-.647.648,4.9,4.9,0,0,0,1.215,3.014A5.407,5.407,0,0,0,18.7,24.748a5.4,5.4,0,0,0,3.677-1.235A4.9,4.9,0,0,0,23.6,20.5a.6.6,0,0,0-.649-.647A4.9,4.9,0,0,0,19.933,21.066Z" transform="translate(-13.809 -9.617)"/>
          <path id="Path_344-3" data-name="Path 344" class="cls-2" d="M19.933,30.32A5.063,5.063,0,0,0,18.7,33.564a5.058,5.058,0,0,0-1.229-3.244A4.9,4.9,0,0,0,14.461,29.1a.6.6,0,0,0-.649.647,4.9,4.9,0,0,0,1.215,3.014,4.918,4.918,0,0,0,3.039,1.218v3.437a.662.662,0,1,0,1.321,0V33.98a4.887,4.887,0,0,0,2.995-1.214A4.9,4.9,0,0,0,23.6,29.752a.6.6,0,0,0-.649-.647A4.895,4.895,0,0,0,19.933,30.32Z" transform="translate(-13.809 -14.1)"/>
        </g>
      </g>
    </g>
  </g>
</svg>
