<svg xmlns="http://www.w3.org/2000/svg" viewBox="0 0 50 50">
  <defs>
    <style>
      .cls-1 {
        fill: #fff;
      }

      .cls-2 {
        fill: #344356;
      }
    </style>
  </defs>
  <g id="animals" transform="translate(17799 -4319)">
    <rect id="Rectangle_1533" data-name="Rectangle 1533" class="cls-1" width="50" height="50" transform="translate(-17799 4319)"/>
    <g id="cow" transform="translate(-17799 4322.998)">
      <path id="Path_305" data-name="Path 305" class="cls-2" d="M185.252,206.417a2.029,2.029,0,1,0,2,2.029A2.017,2.017,0,0,0,185.252,206.417Z" transform="translate(-165.348 -190.504)"/>
      <path id="Path_306" data-name="Path 306" class="cls-2" d="M289.293,206.255a2.045,2.045,0,1,0,2.018,2.045A2.032,2.032,0,0,0,289.293,206.255Z" transform="translate(-259.212 -190.358)"/>
      <path id="Path_307" data-name="Path 307" class="cls-2" d="M208.433,378.079a1.6,1.6,0,1,0,1.577,1.6A1.587,1.587,0,0,0,208.433,378.079Z" transform="translate(-186.652 -345.38)"/>
      <path id="Path_308" data-name="Path 308" class="cls-2" d="M274.1,381.169a1.609,1.609,0,1,0-1.589-1.609A1.6,1.6,0,0,0,274.1,381.169Z" transform="translate(-245.891 -345.265)"/>
      <path id="Path_309" data-name="Path 309" class="cls-2" d="M49.247,49.9l-.556-1.251-1.305.414c-3.74,1.186-8.1,2.554-10.025,3.157a11.575,11.575,0,0,0-2.2-1.388,14.344,14.344,0,0,0-1.393-.589,16.893,16.893,0,0,0,1.187-6.717H31.894a14.692,14.692,0,0,1-.786,5.129,7.53,7.53,0,0,1-.345.789A32.137,32.137,0,0,0,25,49a32.129,32.129,0,0,0-5.764.452,7.509,7.509,0,0,1-.345-.789,14.687,14.687,0,0,1-.786-5.129H15.043a16.891,16.891,0,0,0,1.187,6.717,14.321,14.321,0,0,0-1.393.589,11.568,11.568,0,0,0-2.2,1.388c-1.925-.6-6.285-1.971-10.025-3.157l-1.306-.414L.753,49.9a6.369,6.369,0,0,0,.079,6.117c1.74,2.709,5.707,3.543,8.035,3.8-.031.4-.048.8-.048,1.215a22.281,22.281,0,0,0,1.925,8.809c.358.954.729,1.94,1.113,3.093,1,2.994,2.2,6.081,4.252,8.379A11.231,11.231,0,0,0,25,85.028a11.231,11.231,0,0,0,8.892-3.71c2.051-2.3,3.255-5.385,4.252-8.379.384-1.153.754-2.139,1.113-3.093a22.283,22.283,0,0,0,1.925-8.809c0-.415-.017-.819-.048-1.215,2.328-.257,6.294-1.091,8.035-3.8A6.37,6.37,0,0,0,49.247,49.9ZM9.464,56.8c-1.933-.195-5.024-.828-6.056-2.435a2.609,2.609,0,0,1-.287-1.928c2.655.84,5.424,1.71,7.3,2.3A10.14,10.14,0,0,0,9.464,56.8ZM25,81.966c-4.5,0-6.872-2.1-8.716-6.056A13.664,13.664,0,0,1,25,73.073a13.664,13.664,0,0,1,8.716,2.837C31.872,79.862,29.5,81.966,25,81.966Zm11.39-13.2c-.351.935-.749,1.995-1.151,3.2-.111.334-.223.659-.335.977A17.066,17.066,0,0,0,25,70.011a17.066,17.066,0,0,0-9.9,2.938c-.112-.318-.224-.643-.335-.977-.4-1.208-.8-2.268-1.151-3.2a19.581,19.581,0,0,1-1.729-7.733c0-3.6,1.407-6.035,4.3-7.45,2.106-1.029,4.99-1.53,8.818-1.53s6.713.5,8.818,1.53c2.895,1.415,4.3,3.852,4.3,7.45A19.578,19.578,0,0,1,36.39,68.77Zm10.2-14.405c-1.025,1.6-4.123,2.238-6.058,2.436a10.138,10.138,0,0,0-.959-2.062c1.878-.589,4.647-1.459,7.3-2.3A2.61,2.61,0,0,1,46.593,54.364Z" transform="translate(0 -43.53)"/>
    </g>
  </g>
</svg>
