<svg xmlns="http://www.w3.org/2000/svg" viewBox="0 0 50 50">
  <defs>
    <style>
      .cls-1 {
        fill: #fff;
      }

      .cls-2 {
        fill: #344356;
      }
    </style>
  </defs>
  <g id="conservation" transform="translate(17799 -4386)">
    <rect id="Rectangle_1533" data-name="Rectangle 1533" class="cls-1" width="50" height="50" transform="translate(-17799 4386)"/>
    <g id="ecology" transform="translate(-17799 4386)">
      <g id="Group_217" data-name="Group 217" transform="translate(0 9.935)">
        <g id="Group_216" data-name="Group 216">
          <path id="Path_357" data-name="Path 357" class="cls-2" d="M21.505,127.459a12.293,12.293,0,0,0-6.075-9.985L9.711,111.12a3.092,3.092,0,0,0-3.088-.949V99.312a3.312,3.312,0,0,0-6.623,0v15.669a7.475,7.475,0,0,0,.938,3.62l7.341,13.212v3.1a.828.828,0,0,0,.828.828H20.7a.828.828,0,0,0,.828-.828v-7.451Zm-1.636,6.623H9.935V131.6a.828.828,0,0,0-.1-.4L2.385,117.8a5.817,5.817,0,0,1-.729-2.815V99.312a1.656,1.656,0,0,1,3.312,0v11.883a3.146,3.146,0,0,0,.055,4.167l6.783,7.463,1.225-1.114-6.783-7.462a1.505,1.505,0,0,1,2.177-2.078c.019.019.038.039.056.059l5.806,6.451a1.17,1.17,0,0,0,.248.19,10.608,10.608,0,0,1,5.334,9.19Z" transform="translate(0 -96)"/>
        </g>
      </g>
      <g id="Group_219" data-name="Group 219" transform="translate(28.148 9.935)">
        <g id="Group_218" data-name="Group 218">
          <path id="Path_358" data-name="Path 358" class="cls-2" d="M290.213,96a3.312,3.312,0,0,0-3.312,3.312v10.86a3.207,3.207,0,0,0-.821-.1,3.132,3.132,0,0,0-2.267,1.046l-5.717,6.352a12.267,12.267,0,0,0-6.077,9.988H272v7.451a.828.828,0,0,0,.828.828h11.59a.828.828,0,0,0,.828-.828v-3.1l7.25-13.14a7.457,7.457,0,0,0,1.029-3.778V99.312A3.312,3.312,0,0,0,290.213,96Zm1.656,18.894a5.823,5.823,0,0,1-.811,2.958L283.69,131.2a.828.828,0,0,0-.1.4v2.484h-9.935V128.06a10.626,10.626,0,0,1,5.376-9.21.827.827,0,0,0,.206-.166l5.806-6.457a1.506,1.506,0,1,1,2.235,2.019l-6.785,7.462,1.225,1.116,6.783-7.461a3.146,3.146,0,0,0,.055-4.168V99.312a1.656,1.656,0,0,1,3.312,0Z" transform="translate(-272 -96)"/>
        </g>
      </g>
      <g id="Group_221" data-name="Group 221" transform="translate(14.074)">
        <g id="Group_220" data-name="Group 220">
          <path id="Path_359" data-name="Path 359" class="cls-2" d="M156.7,20.7h-1.656a9.1,9.1,0,0,0-7.451,3.891V19.041h.828a9.117,9.117,0,0,0,9.107-9.107.828.828,0,0,0-.828-.828h-1.656A9.1,9.1,0,0,0,147.59,13V7.451h.828A6.631,6.631,0,0,0,155.041.828.828.828,0,0,0,154.213,0h-1.656a6.623,6.623,0,0,0-5.8,3.424A6.623,6.623,0,0,0,140.967,0h-1.656a.828.828,0,0,0-.828.828,6.631,6.631,0,0,0,6.623,6.623h.828V13a9.1,9.1,0,0,0-7.451-3.891h-1.656a.828.828,0,0,0-.828.828,9.117,9.117,0,0,0,9.107,9.107h.828v5.547a9.1,9.1,0,0,0-7.451-3.891h-1.656a.828.828,0,0,0-.828.828,9.117,9.117,0,0,0,9.107,9.107h.828v6.623h1.656V30.632h.828a9.117,9.117,0,0,0,9.107-9.107A.828.828,0,0,0,156.7,20.7Zm-1.656-9.935h.782a7.462,7.462,0,0,1-7.405,6.623h-.782A7.462,7.462,0,0,1,155.041,10.762Zm-2.484-9.107h.759a4.976,4.976,0,0,1-4.9,4.139h-.759A4.976,4.976,0,0,1,152.558,1.656ZM145.107,5.8a4.976,4.976,0,0,1-4.9-4.139h.759a4.976,4.976,0,0,1,4.9,4.139Zm0,11.59a7.462,7.462,0,0,1-7.405-6.623h.782a7.462,7.462,0,0,1,7.405,6.623Zm0,11.59a7.462,7.462,0,0,1-7.405-6.623h.782a7.462,7.462,0,0,1,7.405,6.623Zm3.312,0h-.782a7.462,7.462,0,0,1,7.405-6.623h.782A7.462,7.462,0,0,1,148.418,28.976Z" transform="translate(-136)"/>
        </g>
      </g>
    </g>
  </g>
</svg>
