<svg xmlns="http://www.w3.org/2000/svg" viewBox="0 0 50 50.591">
  <defs>
    <style>
      .cls-1 {
        fill: #fff;
      }

      .cls-2 {
        fill: #344356;
      }
    </style>
  </defs>
  <g id="disaster" transform="translate(17799 -4386)">
    <rect id="Rectangle_1533" data-name="Rectangle 1533" class="cls-1" width="50" height="50" transform="translate(-17799 4386)"/>
    <g id="Group_215" data-name="Group 215" transform="translate(-17797 4386)">
      <path id="Path_355" data-name="Path 355" class="cls-2" d="M66.654,7.378A1.053,1.053,0,0,0,65.6,8.432c0,.962-.947,1.959-2.619,2.871a33.409,33.409,0,0,0,.511-6.033C63.492,1.11,50.241,0,42.413,0s-21.08,1.11-21.08,5.27c0,2.228,1.989,3.949,4.292,5.943,2.927,2.535,6.248,5.409,6.248,9.867a12.563,12.563,0,0,1-1.97,7.382,14.4,14.4,0,0,0-2.228,7.878c-2.664-1.017-4.234-2.378-4.234-3.666,0-1.109,1.213-2.3,3.329-3.271a1.055,1.055,0,0,0-.881-1.917c-2.938,1.349-4.556,3.192-4.556,5.188,0,2.495,2.484,4.619,6.438,5.94,1,7.822,8.556,11.694,8.9,11.867a1.054,1.054,0,0,0,1.513-.782,37.581,37.581,0,0,1,2.764-9.784c7.633-.649,13.058-3.544,13.058-7.24a4.105,4.105,0,0,0-.828-2.4,1.054,1.054,0,1,0-1.717,1.223,2.054,2.054,0,0,1,.436,1.181c0,2.028-3.869,4.244-9.826,5,2.743-4.881,6.367-7.775,9.921-10.6,4.3-3.422,8.418-6.721,10.349-13.127,3.257-1.377,5.366-3.221,5.366-5.513A1.053,1.053,0,0,0,66.654,7.378ZM36.362,47.831c-1.9-1.281-5.352-4.179-6.321-8.584a34.628,34.628,0,0,0,7.628.8c.32,0,.63-.013.945-.02A39.162,39.162,0,0,0,36.362,47.831ZM60.593,12.359a48.772,48.772,0,0,1-16.073,2.4,62.4,62.4,0,0,1-7.256-.413,1.054,1.054,0,0,0-.247,2.094,64.6,64.6,0,0,0,7.5.427,54.917,54.917,0,0,0,15.268-2c-1.913,4.816-5.336,7.561-9.106,10.561-3.869,3.077-8.079,6.43-11.1,12.467-.622.032-1.254.055-1.908.055a31.566,31.566,0,0,1-7.894-.938c0-.04-.011-.076-.011-.116a12.563,12.563,0,0,1,1.97-7.382,14.515,14.515,0,0,0,2.246-8.428c0-5.421-3.868-8.769-6.976-11.461q-.479-.415-.935-.819c4.572,1.312,11.495,1.74,16.343,1.74,5.865,0,14.772-.623,18.872-2.685A26.235,26.235,0,0,1,60.593,12.359ZM42.413,8.432c-11.666,0-18.509-2.058-18.963-3.111,0-.009,0-.019,0-.029.43-1.119,7.279-3.184,18.968-3.184,11.608,0,18.449,2.039,18.961,3.162C60.861,6.393,54.021,8.432,42.413,8.432Z" transform="translate(-21.333 0)"/>
    </g>
  </g>
</svg>
