<svg xmlns="http://www.w3.org/2000/svg" viewBox="0 0 50.328 50.328">
  <defs>
    <style>
      .cls-1 {
        fill: #fff;
      }

      .cls-2 {
        fill: #344356;
      }
    </style>
  </defs>
  <g id="energy" transform="translate(17799 -4386)">
    <rect id="Rectangle_1533" data-name="Rectangle 1533" class="cls-1" width="50" height="50" transform="translate(-17799 4386)"/>
    <g id="idea" transform="translate(-17799 4386)">
      <path id="Path_360" data-name="Path 360" class="cls-2" d="M112.087,0a15.689,15.689,0,0,0-9.371,28.271v1.31a4.623,4.623,0,0,0-.331,6.639A4.629,4.629,0,0,0,104.4,43.8a7.791,7.791,0,0,0,15.374,0,4.629,4.629,0,0,0,2.015-7.585,4.623,4.623,0,0,0-.331-6.639v-1.31A15.689,15.689,0,0,0,112.087,0ZM118.4,31.376a1.684,1.684,0,0,1,0,3.369H105.77a1.684,1.684,0,1,1,0-3.369Zm-6.318,16a4.852,4.852,0,0,1-4.613-3.368H116.7A4.851,4.851,0,0,1,112.087,47.379Zm6.318-6.317H105.77a1.684,1.684,0,1,1,0-3.368H118.4a1.684,1.684,0,1,1,0,3.368Zm.759-14.78a1.475,1.475,0,0,0-.654,1.225v.922l-.1,0H116.72V22.616l2.117-2.117a1.474,1.474,0,0,0-2.085-2.085L114.2,20.963a1.474,1.474,0,0,0-.432,1.042v6.422H110.4V22.005a1.475,1.475,0,0,0-.432-1.042l-2.549-2.549a1.474,1.474,0,1,0-2.085,2.085l2.117,2.117v5.811H105.77l-.105,0v-.922a1.475,1.475,0,0,0-.654-1.225,12.739,12.739,0,1,1,14.153,0Zm0,0" transform="translate(-86.923)"/>
      <path id="Path_361" data-name="Path 361" class="cls-2" d="M6.107,146.076A1.474,1.474,0,0,0,4.633,144.6H1.474a1.474,1.474,0,0,0,0,2.949H4.633A1.475,1.475,0,0,0,6.107,146.076Zm0,0" transform="translate(0 -130.388)"/>
      <path id="Path_362" data-name="Path 362" class="cls-2" d="M454.5,144.6h-3.159a1.474,1.474,0,1,0,0,2.949H454.5a1.474,1.474,0,1,0,0-2.949Zm0,0" transform="translate(-405.647 -130.388)"/>
      <path id="Path_363" data-name="Path 363" class="cls-2" d="M35.758,249.229l-2.735,1.579a1.474,1.474,0,1,0,1.474,2.554l2.735-1.579a1.475,1.475,0,0,0-1.474-2.554Zm0,0" transform="translate(-29.112 -224.553)"/>
      <path id="Path_364" data-name="Path 364" class="cls-2" d="M423.357,28.628a1.468,1.468,0,0,0,.736-.2l2.736-1.58a1.474,1.474,0,1,0-1.474-2.553l-2.736,1.579a1.475,1.475,0,0,0,.739,2.752Zm0,0" transform="translate(-380.412 -21.73)"/>
      <path id="Path_365" data-name="Path 365" class="cls-2" d="M426.828,250.812l-2.735-1.579a1.474,1.474,0,1,0-1.474,2.554l2.736,1.579a1.474,1.474,0,1,0,1.474-2.554Zm0,0" transform="translate(-380.411 -224.556)"/>
      <path id="Path_366" data-name="Path 366" class="cls-2" d="M37.235,25.877,34.5,24.3a1.474,1.474,0,0,0-1.474,2.554l2.735,1.579a1.475,1.475,0,0,0,1.474-2.554Zm0,0" transform="translate(-29.114 -21.731)"/>
    </g>
  </g>
</svg>
