<svg xmlns="http://www.w3.org/2000/svg" viewBox="0 0 50 50">
  <defs>
    <style>
      .cls-1 {
        fill: #fff;
      }

      .cls-2 {
        fill: #344356;
      }
    </style>
  </defs>
  <g id="farming" transform="translate(17799 -4386)">
    <rect id="Rectangle_1533" data-name="Rectangle 1533" class="cls-1" width="50" height="50" transform="translate(-17799 4386)"/>
    <g id="tractor" transform="translate(-17799 4391)">
      <path id="Path_351" data-name="Path 351" class="cls-2" d="M11.585,180A11.585,11.585,0,1,0,23.17,191.585,11.6,11.6,0,0,0,11.585,180Zm0,20.273a8.689,8.689,0,1,1,8.689-8.689A8.7,8.7,0,0,1,11.585,200.273Zm0,0" transform="translate(0 -162.623)"/>
      <path id="Path_352" data-name="Path 352" class="cls-2" d="M79.344,255a4.344,4.344,0,1,0,4.344,4.344A4.349,4.349,0,0,0,79.344,255Zm0,5.792a1.448,1.448,0,1,1,1.448-1.448A1.45,1.45,0,0,1,79.344,260.792Zm0,0" transform="translate(-67.759 -230.382)"/>
      <path id="Path_353" data-name="Path 353" class="cls-2" d="M51.456,25.388V20.273a5.8,5.8,0,0,0-5.792-5.792h-2.9V7.241a1.45,1.45,0,0,1,1.448-1.448V2.9a4.349,4.349,0,0,0-4.344,4.344v7.241H33.515L30.039,2.9h2.4V0H9.267V2.9h2.9v9.243a17.381,17.381,0,0,0-6.714,3.419l1.844,2.233a14.482,14.482,0,0,1,23.7,11.172v4.344H37.1a8.688,8.688,0,1,0,14.36-7.918ZM15.06,11.646V2.9H27.015l3.475,11.585H26.1a17.276,17.276,0,0,0-9.594-2.9Q15.781,11.585,15.06,11.646Zm14.388,5.731H45.663a2.9,2.9,0,0,1,2.9,2.9v3.393a8.651,8.651,0,0,0-2.9-.5H32.891A17.393,17.393,0,0,0,29.448,17.377Zm4.194,8.689h5.551a8.663,8.663,0,0,0-2.1,4.344H33.885V28.962A17.381,17.381,0,0,0,33.642,26.066ZM45.663,37.651a5.792,5.792,0,1,1,5.792-5.792A5.8,5.8,0,0,1,45.663,37.651Zm0,0" transform="translate(-4.923)"/>
      <path id="Path_354" data-name="Path 354" class="cls-2" d="M409.9,316.448A1.448,1.448,0,1,1,408.448,315,1.448,1.448,0,0,1,409.9,316.448Zm0,0" transform="translate(-367.708 -284.59)"/>
    </g>
  </g>
</svg>
