<svg xmlns="http://www.w3.org/2000/svg" viewBox="0 0 50 50">
  <defs>
    <style>
      .cls-1 {
        fill: #fff;
      }

      .cls-2 {
        fill: #344356;
      }
    </style>
  </defs>
  <g id="food" transform="translate(17799 -4386)">
    <rect id="Rectangle_1533" data-name="Rectangle 1533" class="cls-1" width="50" height="50" transform="translate(-17799 4386)"/>
    <g id="harvest" transform="translate(-17798.998 4353.792)">
      <g id="Group_206" data-name="Group 206" transform="translate(5.611 49.769)">
        <g id="Group_205" data-name="Group 205" transform="translate(0 0)">
          <path id="Path_294" data-name="Path 294" class="cls-2" d="M46.193,194.1a1.609,1.609,0,0,0-1.938-1.193c-1.186.282-3.391,1.309-4.83,5.014a16.213,16.213,0,0,0-1,4.5,1.609,1.609,0,0,0,1.468,1.739c.046,0,.092.006.138.006a1.609,1.609,0,0,0,1.6-1.473,13,13,0,0,1,.794-3.606c.941-2.423,2.115-2.939,2.576-3.049A1.609,1.609,0,0,0,46.193,194.1Z" transform="translate(-38.418 -192.858)"/>
        </g>
      </g>
      <g id="Group_208" data-name="Group 208" transform="translate(5.843 59.18)">
        <g id="Group_207" data-name="Group 207">
          <path id="Path_295" data-name="Path 295" class="cls-2" d="M43.455,285.024c-.1-.412-.184-.832-.255-1.248a1.609,1.609,0,1,0-3.172.542c.083.484.182.972.3,1.451a1.609,1.609,0,0,0,3.131-.744Z" transform="translate(-40.005 -282.437)"/>
        </g>
      </g>
      <g id="Group_210" data-name="Group 210" transform="translate(-0.002 36.208)">
        <g id="Group_209" data-name="Group 209" transform="translate(0 0)">
          <path id="Path_296" data-name="Path 296" class="cls-2" d="M49,54.458a10.381,10.381,0,0,0-4.031-.665q1.333-.927,2.743-1.728a1.069,1.069,0,0,0-1.055-1.86,37.6,37.6,0,0,0-4.141,2.727A10.369,10.369,0,0,0,42,47.46a1.069,1.069,0,1,0-2,.756,8.226,8.226,0,0,1,.014,5.793,7.2,7.2,0,0,0-8.99.759c-1.051,1.051-2.024,2.1-2.922,3.139a14.289,14.289,0,0,0-1.269-5.253,8.278,8.278,0,0,0-5.452-4.8,7.888,7.888,0,0,0-6.073,1.161,2.4,2.4,0,0,1-.29.154,5.078,5.078,0,0,1,4.1-4.9,1.069,1.069,0,0,0-.411-2.1,7.248,7.248,0,0,0-1.971.691,7.347,7.347,0,0,0-9.217-6.414,1.069,1.069,0,0,0-.757.758,7.346,7.346,0,0,0,6.682,9.236,7.133,7.133,0,0,0-.566,2.6l-.056-.032a7.892,7.892,0,0,0-6.074-1.161C4.18,48.47,2.124,50.452.964,53.438A17.623,17.623,0,0,0,5.3,71.654a9.071,9.071,0,0,0,6.024,2.569,7.169,7.169,0,0,0,1.649-.192l.025-.006a4.6,4.6,0,0,1,2.141,0l.02,0a7.228,7.228,0,0,0,3.036.058c-.075.224-.145.443-.207.654-.557,1.892-.528,3.014.095,3.637a1.927,1.927,0,0,0,1.437.491,8.1,8.1,0,0,0,2.2-.4,32.008,32.008,0,0,0,5.466-2.313A60.74,60.74,0,0,0,41.689,65.433a7.2,7.2,0,0,0,.759-8.989,8.227,8.227,0,0,1,5.792.013,1.069,1.069,0,1,0,.756-2ZM11.511,42.712l1.549,1.549A5.206,5.206,0,0,1,8.7,38.394a5.208,5.208,0,0,1,5.867,4.356L13.022,41.2a1.069,1.069,0,1,0-1.512,1.512ZM19.2,71.535a5.5,5.5,0,0,1-3.545.416l-.018,0a6.75,6.75,0,0,0-3.136,0l-.019,0a6.432,6.432,0,0,1-5.755-1.884A15.5,15.5,0,0,1,2.957,54.212a6.433,6.433,0,0,1,4.291-4.274,5.809,5.809,0,0,1,4.449.9,4.46,4.46,0,0,0,4.741,0,5.805,5.805,0,0,1,4.448-.9c3.459.823,5.586,5.376,5.015,10.655a58.868,58.868,0,0,0-5.6,8.682C19.892,70.054,19.525,70.811,19.2,71.535Zm20.977-7.613c-1.094,1.094-2.253,2.157-3.456,3.18l-1.547-1.547a1.069,1.069,0,1,0-1.512,1.512l1.4,1.4c-1.417,1.122-2.882,2.179-4.366,3.15l-1.624-1.624A1.069,1.069,0,0,0,27.56,71.5l1.278,1.278c-.647.388-1.295.76-1.942,1.111-3.77,2.044-6.213,2.746-7.166,2.837a15.1,15.1,0,0,1,1.255-3.941c.011-.024.021-.047.031-.072q.341-.782.793-1.695l1.2,1.2a1.069,1.069,0,1,0,1.512-1.512l-1.666-1.666c.864-1.55,1.835-3.1,2.893-4.623l1.364,1.364a1.069,1.069,0,0,0,1.512-1.512l-1.608-1.608c1.067-1.424,2.2-2.809,3.387-4.129l1.435,1.435a1.069,1.069,0,1,0,1.512-1.512l-1.489-1.489q.337-.348.677-.69a4.7,4.7,0,0,1,3.36-1.356A5.628,5.628,0,0,1,39.852,56.6c.059.059.117.12.173.181l.008.008A5.17,5.17,0,0,1,40.177,63.922Z" transform="translate(0.002 -36.208)"/>
        </g>
      </g>
    </g>
  </g>
</svg>
