<svg id="Google_" data-name="Google+" xmlns="http://www.w3.org/2000/svg" viewBox="0 0 50.184 50.185">
  <defs>
    <style>
      .cls-1, .cls-4 {
        fill: none;
      }

      .cls-1 {
        stroke: #344356;
        stroke-width: 3px;
      }

      .cls-2 {
        fill: #344356;
      }

      .cls-3 {
        stroke: none;
      }
    </style>
  </defs>
  <g id="Google_2" data-name="Google+" transform="translate(0 0)">
    <g id="Instagram" transform="translate(0 0)">
      <g id="Ellipse_2" data-name="Ellipse 2" class="cls-1">
        <circle class="cls-3" cx="25.092" cy="25.092" r="25.092"/>
        <circle class="cls-4" cx="25.092" cy="25.092" r="23.592"/>
      </g>
    </g>
  </g>
  <g id="google-plus" transform="translate(13.783 18.17)">
    <g id="Group_149" data-name="Group 149" transform="translate(15.141 2.753)">
      <g id="Group_148" data-name="Group 148">
        <path id="Path_251" data-name="Path 251" class="cls-2" d="M356.129,162.753V160h-1.376v2.753H352v1.376h2.753v2.753h1.376v-2.753h2.753v-1.376Z" transform="translate(-352 -160)"/>
      </g>
    </g>
    <g id="Group_151" data-name="Group 151" transform="translate(0 0)">
      <g id="Group_150" data-name="Group 150">
        <path id="Path_252" data-name="Path 252" class="cls-2" d="M6.882,101.506v2.753h3.894a4.13,4.13,0,1,1-3.894-5.506,4.068,4.068,0,0,1,2.674,1l1.809-2.076A6.82,6.82,0,0,0,6.882,96a6.882,6.882,0,1,0,6.882,6.882v-1.376Z" transform="translate(0 -96)"/>
      </g>
    </g>
  </g>
</svg>
