<svg xmlns="http://www.w3.org/2000/svg" viewBox="0 0 50 50">
  <defs>
    <style>
      .cls-1 {
        fill: #fff;
      }

      .cls-2 {
        fill: #344356;
      }
    </style>
  </defs>
  <g id="health" transform="translate(17799 -4386)">
    <rect id="Rectangle_1533" data-name="Rectangle 1533" class="cls-1" width="50" height="50" transform="translate(-17799 4386)"/>
    <g id="lifeline-in-a-heart-outline" transform="translate(-17799 4381.197)">
      <path id="Path_356" data-name="Path 356" class="cls-2" d="M50,23.243a13.1,13.1,0,0,1-.685,4.173c-2.124,9.609-20.489,21.234-21.27,21.729a1.507,1.507,0,0,1-.8.231,1.442,1.442,0,0,1-.8-.231,101.919,101.919,0,0,1-10.63-7.89,1.491,1.491,0,0,1,1.935-2.27,102.8,102.8,0,0,0,9.5,7.13c5.516-3.6,17.692-12.745,19.184-19.492a10.634,10.634,0,0,0,.566-3.376,10.519,10.519,0,0,0-5.444-9.212,10.726,10.726,0,0,0-13.167,2.5,1.545,1.545,0,0,1-2.3,0,10.741,10.741,0,0,0-13.166-2.5,10.515,10.515,0,0,0-5.454,9.21,10.382,10.382,0,0,0,.53,3.233A11.648,11.648,0,0,0,9.19,29.418h8.7l2.988-6.866a1.487,1.487,0,0,1,2.813.251l2.2,9.3,2.845-4.665a1.485,1.485,0,0,1,1.272-.714h5.4a1.491,1.491,0,0,1,0,2.981H30.842l-4.286,7.04a1.486,1.486,0,0,1-1.267.717,1.546,1.546,0,0,1-.233-.018,1.493,1.493,0,0,1-1.217-1.127l-2.01-8.47L20.24,31.5a1.485,1.485,0,0,1-1.368.9H1.49a1.49,1.49,0,0,1,0-2.981h4.37a12.949,12.949,0,0,1-.716-2.153A12.563,12.563,0,0,1,4.5,23.239,13.493,13.493,0,0,1,11.5,11.418a13.791,13.791,0,0,1,15.758,1.988A13.775,13.775,0,0,1,43,11.418,13.5,13.5,0,0,1,50,23.243Z"/>
    </g>
  </g>
</svg>
