<svg xmlns="http://www.w3.org/2000/svg" viewBox="0 0 50 50">
  <defs>
    <style>
      .cls-1 {
        fill: #fff;
      }

      .cls-2 {
        fill: #344356;
      }
    </style>
  </defs>
  <g id="research" transform="translate(17799 -4386)">
    <rect id="Rectangle_1533" data-name="Rectangle 1533" class="cls-1" width="50" height="50" transform="translate(-17799 4386)"/>
    <path id="microscope" class="cls-2" d="M38.086,28.027A16.132,16.132,0,0,0,21.973,11.914H17.578V5.859h-2.93V2.93h2.93V0H2.93V2.93h2.93v2.93H2.93v20.7h2.93v5.859h8.789V26.563h2.93V20.7h4.395a7.324,7.324,0,0,1,0,14.648H0v2.93H8.789v2.93H7.324A7.332,7.332,0,0,0,0,48.535V50H26.367V48.535a7.29,7.29,0,0,0-1.653-4.629A16.139,16.139,0,0,0,38.086,28.027ZM8.789,2.93h2.93v2.93H8.789Zm2.93,26.563H8.789v-2.93h2.93Zm2.93-5.859H5.859V8.789h8.789Zm-2.93,14.648h2.93v2.93h-2.93ZM3.181,47.07a4.4,4.4,0,0,1,4.144-2.93H19.043a4.4,4.4,0,0,1,4.144,2.93Zm18.792-5.859H17.578v-2.93h4.395a10.254,10.254,0,0,0,0-20.508H17.578v-2.93h4.395a13.184,13.184,0,0,1,0,26.367Zm0,0" transform="translate(-17793 4386)"/>
  </g>
</svg>
