<svg id="RSS" xmlns="http://www.w3.org/2000/svg" viewBox="0 0 50.184 50.185">
  <defs>
    <style>
      .cls-1 {
        fill: #344356;
      }

      .cls-2, .cls-4 {
        fill: none;
      }

      .cls-2 {
        stroke: #344356;
        stroke-width: 3px;
      }

      .cls-3 {
        stroke: none;
      }
    </style>
  </defs>
  <g id="rss-symbol" transform="translate(16.747 16.746)">
    <g id="Group_152" data-name="Group 152">
      <path id="Path_253" data-name="Path 253" class="cls-1" d="M2.276,292.382a2.2,2.2,0,0,0-1.612.664,2.29,2.29,0,0,0,0,3.224,2.2,2.2,0,0,0,1.612.664,2.2,2.2,0,0,0,1.612-.664,2.289,2.289,0,0,0,0-3.224A2.195,2.195,0,0,0,2.276,292.382Z" transform="translate(0 -280.244)"/>
      <path id="Path_254" data-name="Path 254" class="cls-1" d="M7.515,149.307a10.48,10.48,0,0,0-3.07-2.151A10.626,10.626,0,0,0,.818,146.2H.759a.691.691,0,0,0-.51.2A.7.7,0,0,0,0,146.96v1.6a.729.729,0,0,0,.2.51.72.72,0,0,0,.492.237,7.373,7.373,0,0,1,4.64,2.187,7.372,7.372,0,0,1,2.187,4.64.741.741,0,0,0,.747.688h1.6a.7.7,0,0,0,.557-.249.719.719,0,0,0,.2-.569,10.633,10.633,0,0,0-.954-3.627A10.481,10.481,0,0,0,7.515,149.307Z" transform="translate(0 -140.132)"/>
      <path id="Path_255" data-name="Path 255" class="cls-1" d="M15.267,9.971a16.618,16.618,0,0,0-3.485-5.044A16.617,16.617,0,0,0,6.738,1.442,16.449,16.449,0,0,0,.794.02H.759A.709.709,0,0,0,.237.233.7.7,0,0,0,0,.779V2.474a.726.726,0,0,0,.207.516.709.709,0,0,0,.5.231A13.43,13.43,0,0,1,5.553,4.43,13.628,13.628,0,0,1,9.536,7.174a13.627,13.627,0,0,1,2.744,3.983A13.251,13.251,0,0,1,13.477,16a.71.71,0,0,0,.231.5.741.741,0,0,0,.528.208h1.695a.7.7,0,0,0,.545-.237.686.686,0,0,0,.214-.557A16.447,16.447,0,0,0,15.267,9.971Z" transform="translate(0 -0.02)"/>
    </g>
  </g>
  <g id="RSS-2" data-name="RSS" transform="translate(0 0)">
    <g id="Google_" data-name="Google+" transform="translate(0)">
      <g id="Instagram">
        <g id="Ellipse_2" data-name="Ellipse 2" class="cls-2">
          <circle class="cls-3" cx="25.092" cy="25.092" r="25.092"/>
          <circle class="cls-4" cx="25.092" cy="25.092" r="23.592"/>
        </g>
      </g>
    </g>
  </g>
</svg>
