<svg xmlns="http://www.w3.org/2000/svg" viewBox="0 0 50 50">
  <defs>
    <style>
      .cls-1 {
        fill: #fff;
      }

      .cls-2 {
        fill: #344356;
      }
    </style>
  </defs>
  <g id="rural" transform="translate(17799 -4386)">
    <rect id="Rectangle_1533" data-name="Rectangle 1533" class="cls-1" width="50" height="50" transform="translate(-17799 4386)"/>
    <path id="tent" class="cls-2" d="M48.856,48.271H47.33L26.207,9.548l4.059-7.441a1.085,1.085,0,1,0-1.905-1.04L24.971,7.281l-3.39-6.215a1.085,1.085,0,1,0-1.905,1.04l4.059,7.441L2.612,48.271H1.086a1.086,1.086,0,1,0,0,2.171h47.77a1.086,1.086,0,0,0,0-2.171ZM23.885,35.242H18.457a1.086,1.086,0,1,0,0,2.171h5.428v4.343H18.457a1.086,1.086,0,1,0,0,2.171h5.428v4.343H5.086l18.8-34.465Zm2.171,13.028V43.928h5.428a1.086,1.086,0,1,0,0-2.171H26.056V37.414h5.428a1.086,1.086,0,0,0,0-2.171H26.056V13.805l18.8,34.465Zm0,0" transform="translate(-17799 4385.5)"/>
  </g>
</svg>
