<svg xmlns="http://www.w3.org/2000/svg" viewBox="0 0 50 50">
  <defs>
    <style>
      .cls-1 {
        fill: #fff;
      }

      .cls-2 {
        fill: #344356;
      }
    </style>
  </defs>
  <g id="secretary" transform="translate(17813 -4320)">
    <rect id="Rectangle_1533" data-name="Rectangle 1533" class="cls-1" width="50" height="50" transform="translate(-17813 4320)"/>
    <g id="farmer" transform="translate(-17813 4321)">
      <g id="Group_156" data-name="Group 156" transform="translate(0 45.554)">
        <g id="Group_155" data-name="Group 155">
          <path id="Path_263" data-name="Path 263" class="cls-2" d="M.949,480H.936a.936.936,0,1,0,0,1.871H.949a.936.936,0,1,0,0-1.871Z" transform="translate(0 -480)"/>
        </g>
      </g>
      <g id="Group_158" data-name="Group 158">
        <g id="Group_157" data-name="Group 157">
          <path id="Path_264" data-name="Path 264" class="cls-2" d="M46.7,44.889l-.043-.014-8.041-2.386a.55.55,0,0,1-.387-.375V39.73c0-.032,0-.064,0-.1l3.065-1.758.052-.032a5.812,5.812,0,0,0,2.472-4.426c0-.025,0-.049,0-.074V32.337a3.433,3.433,0,0,0,1.71-5.44c.436.138.866.282,1.286.435a.972.972,0,0,0,1.125-1.477l-4.5-6.3V14.841a.972.972,0,0,0-.625-.908A31.774,31.774,0,0,0,32.949,12a31.774,31.774,0,0,0-9.87,1.933.972.972,0,0,0-.625.908v4.71l-4.478,6.305A.972.972,0,0,0,19.1,27.332c.41-.15.831-.291,1.257-.426a3.433,3.433,0,0,0,1.717,5.431v1.008q0,.037,0,.074a5.8,5.8,0,0,0,2.454,4.426l.053.033,3.1,1.773c0,.026,0,.053,0,.079v1.95a.972.972,0,0,0-.016.171v.234c0,.154-.16.318-.391.4l-8.048,2.385-.043.014A4.484,4.484,0,0,0,16.132,49v8.481H9.913V47.958h1.846a3.405,3.405,0,0,0,3.4-3.4V31.238a.972.972,0,1,0-1.944,0V44.556a1.459,1.459,0,0,1-1.458,1.458h-1V31.148a.972.972,0,1,0-1.944,0V46.014H6.358V31.148a.972.972,0,1,0-1.944,0V46.014H3.4a1.459,1.459,0,0,1-1.458-1.458V31.238a.972.972,0,1,0-1.944,0V44.556a3.405,3.405,0,0,0,3.4,3.4H5.248v9.524H3.886a.972.972,0,1,0,0,1.944h44.9a.972.972,0,0,0,.972-.972V49A4.484,4.484,0,0,0,46.7,44.889ZM7.969,57.482H7.192V47.958h.777ZM24.4,15.529a29.3,29.3,0,0,1,8.551-1.585A29.366,29.366,0,0,1,41.5,15.529V18.64a45.616,45.616,0,0,0-8.778-.759,40.817,40.817,0,0,0-8.324.734ZM24.021,20.7a35.37,35.37,0,0,1,8.7-.876,41.021,41.021,0,0,1,9.165.89l2.784,3.9a45.185,45.185,0,0,0-11.711-1.473,45.175,45.175,0,0,0-11.721,1.476ZM25.58,36.207a3.856,3.856,0,0,1-1.56-2.9v-1.8a.972.972,0,0,0-.972-.972,1.492,1.492,0,1,1,0-2.984.972.972,0,0,0,.971-.924l.033-.673a46.367,46.367,0,0,1,17.826,0v.624a.972.972,0,0,0,.972.972,1.492,1.492,0,0,1,0,2.984.972.972,0,0,0-.972.972v1.8a3.861,3.861,0,0,1-1.578,2.9L34.389,39.6l-.052.032a2.452,2.452,0,0,1-2.775,0l-.053-.033Zm10.71,5.965V42.8l-3.327,3.312L29.627,42.8v-2.04l.891.509a4.4,4.4,0,0,0,4.863,0l.91-.521V41.78c0,.024,0,.047,0,.071v.234C36.286,42.114,36.289,42.143,36.29,42.172ZM20.7,57.482h-2.62V49A2.583,2.583,0,0,1,19.8,46.731l.891-.264V57.482Zm22.551,0H42.11V50.644a.972.972,0,0,0-1.944,0v6.837H25.72V50.644a.972.972,0,0,0-1.944,0v6.837H22.64V45.891l5.215-1.546.043-.014a2.875,2.875,0,0,0,.36-.153l4.022,3.994a.972.972,0,0,0,1.37,0l4-3.986a2.89,2.89,0,0,0,.346.147l.043.014,5.2,1.544Zm4.568,0H45.19V46.466l.9.266A2.584,2.584,0,0,1,47.814,49Z" transform="translate(0 -12)"/>
        </g>
      </g>
      <g id="Group_160" data-name="Group 160" transform="translate(35.921 16.098)">
        <g id="Group_159" data-name="Group 159">
          <path id="Path_265" data-name="Path 265" class="cls-2" d="M370.046,177.349a1.06,1.06,0,1,0,1.06,1.06A1.062,1.062,0,0,0,370.046,177.349Z" transform="translate(-368.986 -177.349)"/>
        </g>
      </g>
      <g id="Group_162" data-name="Group 162" transform="translate(27.884 16.098)">
        <g id="Group_161" data-name="Group 161">
          <path id="Path_266" data-name="Path 266" class="cls-2" d="M287.484,177.349a1.06,1.06,0,1,0,1.06,1.06A1.062,1.062,0,0,0,287.484,177.349Z" transform="translate(-286.424 -177.349)"/>
        </g>
      </g>
      <g id="Group_164" data-name="Group 164" transform="translate(23.812 34.805)">
        <g id="Group_163" data-name="Group 163">
          <path id="Path_267" data-name="Path 267" class="cls-2" d="M245.588,369.568a.936.936,0,0,0-.936.936v.013a.936.936,0,0,0,1.871,0V370.5A.936.936,0,0,0,245.588,369.568Z" transform="translate(-244.652 -369.568)"/>
        </g>
      </g>
      <g id="Group_166" data-name="Group 166" transform="translate(40.523 34.805)">
        <g id="Group_165" data-name="Group 165">
          <path id="Path_268" data-name="Path 268" class="cls-2" d="M414.242,369.568a.936.936,0,0,0-.936.936v.013a.936.936,0,0,0,1.871,0V370.5A.936.936,0,0,0,414.242,369.568Z" transform="translate(-413.306 -369.568)"/>
        </g>
      </g>
      <g id="Group_168" data-name="Group 168" transform="translate(31.113 21.395)">
        <g id="Group_167" data-name="Group 167">
          <path id="Path_269" data-name="Path 269" class="cls-2" d="M322.651,232.087a.936.936,0,0,0-1.263-.151A.951.951,0,0,1,321,232a.939.939,0,0,1-.37-.058.936.936,0,0,0-1.173,1.456,2.321,2.321,0,0,0,1.543.473,2.367,2.367,0,0,0,1.541-.464A.936.936,0,0,0,322.651,232.087Z" transform="translate(-319.141 -231.757)"/>
        </g>
      </g>
    </g>
  </g>
</svg>
