<svg xmlns="http://www.w3.org/2000/svg" viewBox="0 0 50 50">
  <defs>
    <style>
      .cls-1 {
        fill: #fff;
      }

      .cls-2 {
        fill: #344356;
      }
    </style>
  </defs>
  <g id="signup" transform="translate(17868 -4339)">
    <rect id="Rectangle_1533" data-name="Rectangle 1533" class="cls-1" width="50" height="50" transform="translate(-17868 4339)"/>
    <g id="agronomy" transform="translate(-17868 4339)">
      <g id="Group_170" data-name="Group 170" transform="translate(13.98 6.276)">
        <g id="Group_169" data-name="Group 169">
          <path id="Path_270" data-name="Path 270" class="cls-2" d="M165.782,83.993a.967.967,0,0,0-.6-.636,6.874,6.874,0,0,0-1.275-.3,8.215,8.215,0,0,0,1.871-8.064.967.967,0,0,0-.6-.636,8.32,8.32,0,0,0-5.2.054,8.685,8.685,0,0,0,.241-2.065,8.212,8.212,0,0,0-4.384-7.316.966.966,0,0,0-.871-.029,8.182,8.182,0,0,0-4.44,7.345,8.684,8.684,0,0,0,.242,2.069,8.32,8.32,0,0,0-5.21-.058.967.967,0,0,0-.6.636,8.215,8.215,0,0,0,1.871,8.064,6.874,6.874,0,0,0-1.275.3.967.967,0,0,0-.6.636,8.212,8.212,0,0,0,2.074,8.273,8.022,8.022,0,0,0,5.8,2.443,8.647,8.647,0,0,0,1.556-.141v6.326a.967.967,0,0,0,1.934,0V94.566a8.66,8.66,0,0,0,1.57.144,8.023,8.023,0,0,0,5.8-2.443A8.212,8.212,0,0,0,165.782,83.993ZM154.4,91.554a6.443,6.443,0,0,1-.142,1.073,6.379,6.379,0,0,1-7.574-7.578,6.483,6.483,0,0,1,3.322.157q.139.052.276.1a6.338,6.338,0,0,1,2.247,1.474,6.164,6.164,0,0,1,1.871,4.132Zm0-9a6.441,6.441,0,0,1-.142,1.073A6.425,6.425,0,0,1,151,83.5q-.21-.081-.417-.147A6.384,6.384,0,0,1,148.41,81.9a6.234,6.234,0,0,1-1.724-5.849,6.27,6.27,0,0,1,5.845,1.728l.041.042q.127.143.255.274a6.122,6.122,0,0,1,1.575,3.816Zm.98-4.851a6.574,6.574,0,0,1-1.183-.978c-.045-.05-.091-.1-.138-.149a6.167,6.167,0,0,1-1.595-4.232,6.241,6.241,0,0,1,2.909-5.356,6.234,6.234,0,0,1,2.919,5.356,6.167,6.167,0,0,1-1.447,4.069c-.157.157-.3.315-.441.474A6.493,6.493,0,0,1,155.382,77.705Zm.959,4.537a6.12,6.12,0,0,1,1.494-4.048c.142-.142.286-.294.428-.458a6.24,6.24,0,0,1,5.8-1.688A6.234,6.234,0,0,1,162.34,81.9a6.385,6.385,0,0,1-2.174,1.45q-.21.068-.424.15a6.422,6.422,0,0,1-3.251.129,6.49,6.49,0,0,1-.15-1.362C156.341,82.259,156.341,82.251,156.341,82.243Zm6,8.656a6.24,6.24,0,0,1-5.848,1.729,6.271,6.271,0,0,1,1.727-5.85,6.383,6.383,0,0,1,2.18-1.452q.206-.066.416-.147a6.427,6.427,0,0,1,3.249-.131A6.234,6.234,0,0,1,162.34,90.9Z" transform="translate(-144.606 -64.913)"/>
        </g>
      </g>
      <g id="Group_172" data-name="Group 172" transform="translate(0)">
        <g id="Group_171" data-name="Group 171">
          <path id="Path_271" data-name="Path 271" class="cls-2" d="M29.908.539A24.917,24.917,0,0,0,24.75,0,24.75,24.75,0,0,0,5.23,39.966a3.669,3.669,0,1,0,1.442-1.3A22.827,22.827,0,0,1,29.507,2.43a.967.967,0,0,0,.4-1.892ZM7.089,40.723a1.74,1.74,0,1,1-.51,1.231A1.734,1.734,0,0,1,7.089,40.723Z" transform="translate(0 0)"/>
        </g>
      </g>
      <g id="Group_174" data-name="Group 174" transform="translate(19.583 3.872)">
        <g id="Group_173" data-name="Group 173">
          <path id="Path_272" data-name="Path 272" class="cls-2" d="M227.243,45.713a3.669,3.669,0,1,0-1.442,1.3,22.827,22.827,0,0,1-22.108,36.381.967.967,0,0,0-.339,1.9,24.981,24.981,0,0,0,4.37.385,24.75,24.75,0,0,0,19.52-39.966Zm-1.859-.758a1.74,1.74,0,1,1,.51-1.231A1.728,1.728,0,0,1,225.384,44.955Z" transform="translate(-202.556 -40.051)"/>
        </g>
      </g>
      <g id="Group_176" data-name="Group 176" transform="translate(14.923 45.861)">
        <g id="Group_175" data-name="Group 175">
          <path id="Path_273" data-name="Path 273" class="cls-2" d="M155.688,474.432l-.365.9.362-.9a.967.967,0,0,0-.725,1.793l.03.012a.967.967,0,1,0,.7-1.8Z" transform="translate(-154.355 -474.36)"/>
        </g>
      </g>
      <g id="Group_178" data-name="Group 178" transform="translate(32.671 1.716)">
        <g id="Group_177" data-name="Group 177">
          <path id="Path_274" data-name="Path 274" class="cls-2" d="M339.272,17.83l-.017-.007a.967.967,0,1,0-.718,1.8l.011,0a.967.967,0,0,0,.724-1.793Z" transform="translate(-337.929 -17.754)"/>
        </g>
      </g>
    </g>
  </g>
</svg>
