<svg xmlns="http://www.w3.org/2000/svg" viewBox="0 0 50 50">
  <defs>
    <style>
      .cls-1 {
        fill: #fff;
      }

      .cls-2 {
        fill: #344356;
      }
    </style>
  </defs>
  <g id="technology" transform="translate(17799 -4386)">
    <rect id="Rectangle_1533" data-name="Rectangle 1533" class="cls-1" width="50" height="50" transform="translate(-17799 4386)"/>
    <g id="configuration" transform="translate(-17819 4210.199)">
      <path id="Path_313" data-name="Path 313" class="cls-2" d="M1.167,20.381,6.7,19.292a18.668,18.668,0,0,1,1.455-3.5L5.074,11.173a1.447,1.447,0,0,1,.181-1.826L9.347,5.255a1.447,1.447,0,0,1,1.826-.181L15.79,8.152a18.668,18.668,0,0,1,3.5-1.455l1.089-5.529A1.447,1.447,0,0,1,21.8,0h5.788a1.447,1.447,0,0,1,1.42,1.167L30.1,6.7a18.668,18.668,0,0,1,3.5,1.455l4.616-3.077a1.447,1.447,0,0,1,1.826.181l4.092,4.092a1.447,1.447,0,0,1,.181,1.826L41.238,15.79a18.694,18.694,0,0,1,1.455,3.5l5.529,1.089A1.447,1.447,0,0,1,49.39,21.8v5.788a1.447,1.447,0,0,1-1.167,1.42L42.693,30.1a18.668,18.668,0,0,1-1.455,3.5l3.077,4.616a1.448,1.448,0,0,1-.181,1.826l-4.092,4.092a1.447,1.447,0,0,1-1.826.181L33.6,41.238a18.667,18.667,0,0,1-3.5,1.455l-1.089,5.529a1.447,1.447,0,0,1-1.42,1.167H21.8a1.447,1.447,0,0,1-1.42-1.167l-1.089-5.529a18.667,18.667,0,0,1-3.5-1.455l-4.616,3.077a1.448,1.448,0,0,1-1.826-.181L5.255,40.042a1.447,1.447,0,0,1-.181-1.826L8.152,33.6A18.668,18.668,0,0,1,6.7,30.1L1.167,29.009A1.447,1.447,0,0,1,0,27.589V21.8A1.447,1.447,0,0,1,1.167,20.381ZM2.894,26.4l5.241,1.032A1.446,1.446,0,0,1,9.26,28.5a15.8,15.8,0,0,0,1.829,4.4,1.447,1.447,0,0,1-.034,1.553L8.14,38.835l2.415,2.415,4.374-2.916a1.446,1.446,0,0,1,1.552-.033,15.8,15.8,0,0,0,4.4,1.829,1.448,1.448,0,0,1,1.073,1.125L22.991,46.5H26.4l1.032-5.241A1.448,1.448,0,0,1,28.5,40.13a15.8,15.8,0,0,0,4.4-1.829,1.447,1.447,0,0,1,1.553.034l4.374,2.916,2.415-2.415-2.916-4.374a1.447,1.447,0,0,1-.034-1.553,15.806,15.806,0,0,0,1.829-4.4,1.447,1.447,0,0,1,1.125-1.072L46.5,26.4V22.991l-5.241-1.032a1.448,1.448,0,0,1-1.125-1.073,15.81,15.81,0,0,0-1.829-4.4,1.447,1.447,0,0,1,.034-1.553l2.916-4.374L38.835,8.14l-4.374,2.916a1.447,1.447,0,0,1-1.553.034A15.811,15.811,0,0,0,28.5,9.26a1.448,1.448,0,0,1-1.073-1.125L26.4,2.894H22.991L21.959,8.135A1.448,1.448,0,0,1,20.886,9.26a15.8,15.8,0,0,0-4.4,1.829,1.447,1.447,0,0,1-1.553-.034L10.555,8.14,8.14,10.555l2.916,4.374a1.447,1.447,0,0,1,.034,1.553,15.8,15.8,0,0,0-1.829,4.4,1.446,1.446,0,0,1-1.125,1.072L2.894,22.991Zm0,0" transform="translate(20 175.801)"/>
      <path id="Path_314" data-name="Path 314" class="cls-2" d="M134.977,121A13.977,13.977,0,1,1,121,134.977,13.993,13.993,0,0,1,134.977,121Zm0,24.847a10.871,10.871,0,1,0-10.871-10.871A10.883,10.883,0,0,0,134.977,145.847Zm0,0" transform="translate(-90.282 65.519)"/>
      <path id="Path_315" data-name="Path 315" class="cls-2" d="M187.644,181A6.644,6.644,0,1,1,181,187.644,6.651,6.651,0,0,1,187.644,181Zm0,10.63a3.986,3.986,0,1,0-3.986-3.986A3.991,3.991,0,0,0,187.644,191.63Zm0,0" transform="translate(-142.949 12.852)"/>
    </g>
  </g>
</svg>
