<svg id="Twitter" xmlns="http://www.w3.org/2000/svg" viewBox="0 0 50.184 50.185">
  <defs>
    <style>
      .cls-1 {
        fill: #344356;
      }

      .cls-2, .cls-4 {
        fill: none;
      }

      .cls-2 {
        stroke: #344356;
        stroke-width: 3px;
      }

      .cls-3 {
        stroke: none;
      }
    </style>
  </defs>
  <g id="twitter-2" data-name="twitter" transform="translate(13.731 16.498)">
    <path id="Path_247" data-name="Path 247" class="cls-1" d="M21.7,50.043a8.9,8.9,0,0,1-2.557.7A4.465,4.465,0,0,0,21.1,48.281a8.912,8.912,0,0,1-2.827,1.08,4.456,4.456,0,0,0-7.586,4.06,12.639,12.639,0,0,1-9.176-4.651,4.457,4.457,0,0,0,1.378,5.944,4.434,4.434,0,0,1-2.016-.557c0,.019,0,.037,0,.056a4.455,4.455,0,0,0,3.571,4.365,4.456,4.456,0,0,1-2.01.076,4.456,4.456,0,0,0,4.159,3.092,8.932,8.932,0,0,1-5.529,1.906A9.013,9.013,0,0,1,0,63.59a12.6,12.6,0,0,0,6.824,2A12.58,12.58,0,0,0,19.492,52.924q0-.29-.013-.576A9.044,9.044,0,0,0,21.7,50.043Z" transform="translate(-0.001 -47.956)"/>
  </g>
  <g id="Ellipse_3" data-name="Ellipse 3" class="cls-2" transform="translate(0)">
    <circle class="cls-3" cx="25.092" cy="25.092" r="25.092"/>
    <circle class="cls-4" cx="25.092" cy="25.092" r="23.592"/>
  </g>
</svg>
