<svg xmlns="http://www.w3.org/2000/svg" viewBox="0 0 1240.912 225.186">
  <defs>
    <style>
      .cls-1 {
        fill: #fff;
      }

      .cls-2 {
        fill: #354456;
      }

      .cls-3 {
        fill: #759e4f;
      }

      .cls-4 {
        fill: #344356;
        font-size: 85px;
        font-family: BrandonGrotesque-Regular, Brandon Grotesque;
        letter-spacing: 0.05em;
      }
    </style>
  </defs>
  <g id="blue_green_logo" data-name="blue &amp; green logo" transform="translate(-0.001 0)">
    <path id="Path_263" data-name="Path 263" class="cls-1" d="M104.132,218.148a102.446,102.446,0,0,0,32.573-4.855,108.817,108.817,0,0,0,66.574-58.507c1.469-3.222,2.634-6.588,3.879-9.91.5-1.33.05-2.141-1.434-2.56-4.547-1.275-9.038-2.729-13.59-3.989a2.009,2.009,0,0,1-1.763-2.311c.065-4.2-.075-8.411.055-12.609.065-2.141-1.215-1.907-2.59-2-1.484-.095-2.106.349-2.067,1.942.09,3.849,0,7.7.04,11.558.015,1.369-.373,1.912-1.852,1.574-2.271-.518-4.581-.861-6.877-1.285a222.218,222.218,0,0,0-30.591-3.232c-4.776-.219-9.571-.095-14.357-.065-1.185.005-1.7-.383-1.673-1.608.065-2.624-.025-5.254.1-7.878.07-1.5-.239-2.4-1.947-2.261a5.31,5.31,0,0,1-1.225-.03c-1.165-.174-1.584.344-1.559,1.469.04,1.808.01,3.62.01,5.428,0,5.229,0,5.179-5.284,5.488a190.714,190.714,0,0,0-29.61,4.049c-3.307.722-6.6,1.484-9.92,2.141-2.639.523-3.6-.3-3.61-2.873-.01-3.386-.07-6.772-.04-10.154.01-1.076-.388-1.509-1.429-1.444a11.071,11.071,0,0,1-1.574,0c-1.255-.11-1.783.363-1.753,1.693.065,3.033.015,6.07,0,9.108-.015,2.146-.189,2.236-2.331,2-5.159-.573-10.313-1.359-15.487-1.559a205.8,205.8,0,0,0-32.856,1.205c-1.389.169-1.912-.244-1.887-1.658.05-3.441-.055-6.892.03-10.333.04-1.559-.548-2.042-2.052-2-2.47.07-2.729.159-2.749,2.062-.035,3.5-.1,7.007.03,10.507.07,1.738-.578,2.321-2.216,2.57-3.919.588-7.813,1.359-11.717,2.057-1.175.209-1.668.608-1.22,2a110.727,110.727,0,0,0,17.862,34.057,107.086,107.086,0,0,0,38.284,31.238A103.544,103.544,0,0,0,104.132,218.148Zm-2.35-95.577c.085.015.169.025.259.04v1.748c0,.408,0,.817.01,1.225.03,2.156.125,2.326,2.326,2.1,7.28-.752,12.947-4.362,15.995-10.9,2.465-5.284,3.859-11.075,5.622-16.677.508-1.613.015-2.017-1.693-1.623-2.614.6-5.244,1.15-7.8,1.952-6.827,2.141-11.862,6.2-13.47,13.52C102.4,116.78,102.185,119.693,101.782,122.571Zm24.426-48.777c-.159-.2-.319-.413-.478-.617-3.575.946-7.226,1.668-10.7,2.888-4.99,1.753-9.008,4.766-11.14,9.89-2.151,5.174-2,10.577-1.808,15.99.015.364.916,1.031,1.364,1,7.569-.548,13.4-4.163,16.712-10.906,2.186-4.442,3.4-9.362,4.99-14.088C125.61,76.6,125.864,75.184,126.208,73.795ZM75.832,89.81c.274,1.275.393,2.131.642,2.948q1.9,6.267,3.859,12.524a21.084,21.084,0,0,0,17.992,14.252c1.315.1,2.012-.269,1.942-1.7-.149-3.028-.09-6.075-.423-9.083a18.224,18.224,0,0,0-4.258-10.532C90.418,92.474,83.267,91.383,75.832,89.81Zm23.45-.847c.085-.01.174-.02.259-.035-.324-2.475-.553-4.965-.986-7.42C97.5,75.587,94.332,71.1,88.76,68.79A98.807,98.807,0,0,0,77.1,65.239c-1.848-.508-2.181-.144-1.658,1.683,1.245,4.367,2.355,8.789,3.934,13.037,3.142,8.466,9.1,13.6,18.321,14.566,1.2.124,1.613-.234,1.589-1.369C99.257,91.767,99.282,90.362,99.282,88.963Zm.05-23.823c-.3-2.6-.458-5.229-.931-7.8A16.1,16.1,0,0,0,91.16,46.062c-4.133-2.619-8.814-3.59-13.51-4.512-1.2-.234-1.708.364-1.354,1.489,1.559,4.94,2.764,10.049,4.86,14.755C83.75,63.621,88.2,67.719,94.825,68.86,99.173,69.607,99.173,69.617,99.332,65.14Zm25.93-14.989a8.24,8.24,0,0,0-1.524-.1c-4.352.822-8.66,1.788-12.619,3.914a15.662,15.662,0,0,0-7.644,8.929c-1.509,4.362-1.519,8.919-1.454,13.48.02,1.374.593,1.683,1.828,1.564A19,19,0,0,0,115.67,72.52a23.648,23.648,0,0,0,6.04-10.463C122.876,58.178,124.027,54.294,125.262,50.151Zm-23.206-.672c0,.991.055,1.987-.015,2.973-.095,1.4.538,1.813,1.882,1.748a16.177,16.177,0,0,0,11.3-5.518c4.91-5.239,5.846-12.156,7.758-18.644.319-1.081-.274-1.489-1.374-1.23-1.474.344-2.983.558-4.442.946-4.686,1.255-9.1,3.018-12,7.226C102.579,40.739,102.225,45.091,102.056,49.478ZM78.6,20.9c1.5,6.3,2.754,12.23,5.986,17.369,3.018,4.8,7.395,7.823,13.291,8.227,1.409.1,2.141-.324,2.027-1.813a75.961,75.961,0,0,0-.861-9.73,15.321,15.321,0,0,0-2.993-6.6C91.638,23.185,85.364,21.945,78.6,20.9Zm23.778,14.377a16.108,16.108,0,0,0,6.653-11.344c1.031-8.351-1.653-15.846-5.9-22.877-.852-1.4-1.474-1.419-2.176.06C99.382,4.426,97.8,7.743,96.513,11.164c-1.31,3.491-1.912,7.261-.493,10.791C97.818,26.4,100.134,30.635,102.375,35.281Zm67.4,71.345c-1.738.334-3.033.523-4.3.832-4.407,1.061-8.739,2.385-11.633,6.185-3.436,4.512-3.556,9.85-3.3,15.2.02.369,1.046.981,1.608.981,3.775.03,6.763-1.793,9.526-4.178,3.57-3.083,4.726-7.4,6.1-11.6C168.531,111.745,169.044,109.375,169.776,106.626ZM33.559,87.071a6.536,6.536,0,0,0,.015,1.554c1.25,3.934,2.3,7.958,3.864,11.767,2.4,5.846,6.942,9.138,13.246,9.989,1.464.2,1.967-.528,1.887-1.768a69.759,69.759,0,0,0-.787-8.67A14.33,14.33,0,0,0,49.465,94.4C45.62,89.107,39.565,88.41,33.559,87.071Zm39.4,13.58c-.518-.129-.817-.314-1.041-.244a109.5,109.5,0,0,0-10.736,3.431,10.376,10.376,0,0,0-6.15,7.609c-.707,3.386-.861,6.892-1.235,10.348-.154,1.424.578,1.788,1.9,1.683a15.082,15.082,0,0,0,11.374-6.648C70.494,112.109,71.465,106.4,72.964,100.651Zm.812-19.66-.593-.563c-2.46.613-4.965,1.1-7.375,1.872-3.307,1.066-6.3,2.664-8.331,5.692-2.993,4.482-3.023,9.536-2.928,14.621.02,1.115.837,1.285,1.738,1.165a15.717,15.717,0,0,0,8.022-3.112A19.191,19.191,0,0,0,70.8,90.955C71.8,87.638,72.785,84.317,73.776,80.99Zm95.831,6.045c-2.594.578-4.7.921-6.733,1.519-5.244,1.544-9.91,4.068-11.309,9.805-.871,3.571-.857,7.365-1.12,11.07-.02.309.911,1.011,1.355.971a15.958,15.958,0,0,0,9.481-4c3.75-3.3,5.154-7.808,6.558-12.32C168.5,91.946,168.934,89.735,169.606,87.036ZM148.353,99.067a19.083,19.083,0,0,0-1.9-9.5c-2.535-5.881-11.07-8.286-15.985-8.834-1.011-.11-1.19.6-.941,1.384,1.354,4.2,2.365,8.565,4.2,12.549a15.533,15.533,0,0,0,11.922,9.013c2.515.443,2.674.254,2.689-2.345C148.353,100.586,148.353,99.824,148.353,99.067Zm.667,19.964h.045c-.045-.931-.035-1.867-.139-2.794-.463-4.128-1.469-8.027-4.84-10.866-3.615-3.043-8.042-4.068-12.5-4.965-1.484-.3-1.678.622-1.29,1.808,1.285,3.924,2.291,7.968,3.934,11.732a15.456,15.456,0,0,0,12.5,9.467c2.027.309,2.241.055,2.281-1.932C149.035,120.664,149.02,119.848,149.02,119.031Zm-96.657,6.13h-.08c0-.817.065-1.633-.01-2.445-.408-4.472-1.633-8.55-5.463-11.409-3.62-2.7-7.928-3.506-12.171-4.492-1.115-.259-1.379.518-1.1,1.369,1.444,4.412,2.54,9,4.532,13.162a14.66,14.66,0,0,0,12.365,8.515c1.3.129,2.007-.319,1.937-1.728C52.328,127.143,52.363,126.152,52.363,125.161Zm77.869-63.109a5.177,5.177,0,0,0,.015,1.32c1,3.346,1.847,6.753,3.082,10.009A15.732,15.732,0,0,0,146.64,84.028c.827.12,1.658.194,1.564-.956-.3-3.466-.264-7.031-1.115-10.363C145.171,65.209,137.407,62.884,130.231,62.052Zm-57.317.239c-.139-.159-.279-.314-.423-.473-2,.488-4.034.881-6,1.479-4.352,1.32-8.246,3.336-10.154,7.808-1.643,3.849-1.658,7.938-1.414,12.026.02.3.762.842,1.125.807a15.661,15.661,0,0,0,8.879-3.65c3.63-3.023,4.9-7.26,6.24-11.468C71.859,66.678,72.342,64.472,72.914,62.291Zm-20.507,23.8c-.06-4.467-.752-8.645-4.058-11.941-3.506-3.5-8.1-4.382-12.673-5.279-1.13-.219-1.26.558-1.011,1.424.812,2.848,1.579,5.717,2.485,8.54,1.843,5.737,5.358,9.974,11.4,11.424,4.566,1.1,3.785.687,3.859-2.833C52.418,86.961,52.408,86.493,52.408,86.095Zm97.663.782c.11.025.219.05.329.07v1.4c0,2.226.219,2.45,2.415,2.206a13.915,13.915,0,0,0,9.6-5.448c3.511-4.382,4.472-9.79,5.976-14.974.363-1.245-.548-1.4-1.444-1.215a48.021,48.021,0,0,0-5.772,1.4c-4.083,1.414-7.739,3.585-9.222,7.9A69.741,69.741,0,0,0,150.071,86.876ZM148.9,62.615c-.164-1.474-.4-3.561-.632-5.642a9.651,9.651,0,0,0-3.092-6.215C142,48,137.985,46.764,133.9,45.948c-1.28-.254-1.847.329-1.424,1.723.732,2.4,1.4,4.81,2.067,7.226,1.584,5.707,5.323,9.267,10.941,10.916C148.183,66.6,148.876,66.036,148.9,62.615Zm18.3-10.756c-1.838.344-3.257.548-4.641.886-3.147.772-6.245,1.828-8.446,4.293-3.566,3.994-3.849,8.974-3.541,14,.025.418,1.021,1.16,1.489,1.106a13.79,13.79,0,0,0,10.741-6.932C165.11,61.256,166.006,56.774,167.191,51.859ZM70.932,45.813c-1.579.264-2.57.354-3.516.6-3.785,1.006-7.584,1.992-10.213,5.269-3.177,3.959-3.013,8.68-2.988,13.346,0,.339.906,1.031,1.25.951A25.028,25.028,0,0,0,61.4,64.169c4.447-2.37,6.279-6.7,7.634-11.254C69.682,50.708,70.225,48.467,70.932,45.813ZM36.019,52a7.372,7.372,0,0,0,.08,1.374c1.061,3.441,1.833,7.012,3.292,10.273A13.354,13.354,0,0,0,50.9,72.062c1.1.1,1.509-.244,1.484-1.295-.04-1.628.035-3.267-.09-4.89-.393-5.069-2.331-9.228-7.226-11.463A27.5,27.5,0,0,0,36.019,52Zm115.018,4.93c8.62-6.384,4.761-21.961-.931-27.867-1.2,2.644-2.206,5.249-3.526,7.684-1.449,2.674-1.295,5.508-1.285,8.336.02,3.854,3,6.464,4.347,9.765A12.347,12.347,0,0,0,151.037,56.928ZM52.064,56.9c1.2-2.131,2.385-4.113,3.451-6.155,1.763-3.366,3.023-6.842,1.763-10.721C56.67,38.144,56.2,36.2,55.43,34.395c-.8-1.867-1.887-3.61-3.087-5.851C51.272,30.63,50.421,32.2,49.659,33.8c-2.5,5.293-3.859,10.781-2.241,16.6A10.363,10.363,0,0,0,52.064,56.9Z" transform="translate(-0.001 0.001)"/>
    <path id="Path_264" data-name="Path 264" class="cls-2" d="M104.132,339.2a103.577,103.577,0,0,1-47.821-10.97,107.086,107.086,0,0,1-38.284-31.238A110.727,110.727,0,0,1,.165,262.938c-.448-1.394.045-1.793,1.22-2,3.9-.692,7.793-1.469,11.717-2.057,1.638-.244,2.281-.832,2.216-2.57-.134-3.5-.065-7-.03-10.507.02-1.907.279-1.992,2.749-2.062,1.5-.04,2.087.438,2.052,2-.085,3.441.025,6.887-.03,10.333-.02,1.414.5,1.828,1.887,1.658A205.8,205.8,0,0,1,54.8,256.524c5.174.2,10.328.991,15.487,1.559,2.141.239,2.316.149,2.331-2,.02-3.038.07-6.07,0-9.108-.03-1.33.5-1.8,1.753-1.693a10.384,10.384,0,0,0,1.574,0c1.041-.06,1.439.369,1.429,1.444-.035,3.386.03,6.772.04,10.154.01,2.565.971,3.391,3.61,2.873,3.317-.657,6.613-1.419,9.92-2.141a190.788,190.788,0,0,1,29.61-4.049c5.284-.3,5.284-.259,5.284-5.488,0-1.808.035-3.62-.01-5.428-.025-1.125.393-1.643,1.559-1.469a5.3,5.3,0,0,0,1.225.03c1.7-.139,2.017.757,1.947,2.261-.124,2.619-.04,5.254-.1,7.878-.03,1.22.483,1.613,1.673,1.608,4.786-.03,9.581-.154,14.357.065a223.623,223.623,0,0,1,30.591,3.232c2.291.428,4.606.767,6.877,1.285,1.479.339,1.867-.2,1.853-1.574-.04-3.854.05-7.709-.04-11.558-.035-1.593.583-2.037,2.067-1.942,1.374.09,2.654-.149,2.589,2-.129,4.2.005,8.406-.055,12.609a2.009,2.009,0,0,0,1.763,2.311c4.551,1.26,9.043,2.714,13.59,3.989,1.484.418,1.932,1.23,1.434,2.56-1.245,3.322-2.405,6.688-3.879,9.91a108.817,108.817,0,0,1-66.574,58.507A102.353,102.353,0,0,1,104.132,339.2Zm34.6-63.079c-.08.159-.164.319-.244.478-1.9-.2-3.8-.448-5.712-.593a171.438,171.438,0,0,1-37.015-7.221c-11.18-3.411-22.518-6.15-34.191-7.161a208.17,208.17,0,0,0-50.41,2.166c-1.758.274-3.5.642-5.284.976,10.97,34.216,46.845,70.036,98.539,69.951,51.61-.09,86.568-35.825,97.384-67.795A208.623,208.623,0,0,0,151.35,258a235.593,235.593,0,0,0-51.067,2.52Z" transform="translate(-0.001 -121.054)"/>
    <path id="Path_265" data-name="Path 265" class="cls-2" d="M204.39,221.7c.4-2.873.622-5.792,1.245-8.62,1.608-7.31,6.643-11.379,13.47-13.52,2.555-.8,5.184-1.355,7.8-1.952,1.713-.388,2.2.015,1.693,1.623-1.763,5.6-3.157,11.389-5.622,16.677-3.048,6.538-8.715,10.149-15.995,10.9-2.2.229-2.3.06-2.326-2.1,0-.408,0-.817-.01-1.225v-1.748C204.559,221.729,204.475,221.714,204.39,221.7Z" transform="translate(-102.609 -99.131)"/>
    <path id="Path_266" data-name="Path 266" class="cls-2" d="M229.016,147.558c-.344,1.389-.6,2.8-1.056,4.158-1.589,4.726-2.8,9.651-4.99,14.088-3.317,6.743-9.143,10.363-16.712,10.906-.448.035-1.354-.632-1.364-1-.2-5.413-.344-10.816,1.808-15.99,2.131-5.124,6.15-8.137,11.14-9.89,3.476-1.22,7.126-1.942,10.7-2.888C228.7,147.149,228.856,147.353,229.016,147.558Z" transform="translate(-102.809 -73.762)"/>
    <path id="Path_267" data-name="Path 267" class="cls-2" d="M152.28,180.34c7.435,1.574,14.581,2.669,19.75,8.406a18.158,18.158,0,0,1,4.258,10.532c.334,3.008.274,6.055.423,9.083.07,1.434-.627,1.808-1.942,1.7a21.084,21.084,0,0,1-17.992-14.252q-1.972-6.245-3.859-12.524C152.673,182.471,152.554,181.615,152.28,180.34Z" transform="translate(-76.449 -90.529)"/>
    <path id="Path_268" data-name="Path 268" class="cls-2" d="M175.113,154.518c0,1.4-.02,2.8,0,4.2.025,1.135-.393,1.494-1.589,1.369-9.218-.971-15.173-6.105-18.321-14.566-1.579-4.248-2.689-8.675-3.934-13.037-.523-1.828-.189-2.191,1.658-1.683a99.1,99.1,0,0,1,11.658,3.551c5.572,2.306,8.744,6.8,9.8,12.718.433,2.455.662,4.945.986,7.42Z" transform="translate(-75.832 -65.553)"/>
    <path id="Path_269" data-name="Path 269" class="cls-2" d="M176.131,106.968c-.159,4.477-.159,4.467-4.512,3.72-6.623-1.14-11.075-5.239-13.669-11.065-2.1-4.706-3.3-9.81-4.86-14.755-.354-1.125.159-1.723,1.354-1.489,4.7.921,9.377,1.892,13.51,4.512a16.1,16.1,0,0,1,7.241,11.279C175.677,101.735,175.832,104.364,176.131,106.968Z" transform="translate(-76.8 -41.827)"/>
    <path id="Path_270" data-name="Path 270" class="cls-2" d="M228.091,100.576c-1.235,4.143-2.385,8.027-3.551,11.907a23.674,23.674,0,0,1-6.04,10.462,19.03,19.03,0,0,1-11.822,5.413c-1.235.12-1.808-.189-1.828-1.564-.065-4.557-.055-9.113,1.454-13.48a15.662,15.662,0,0,1,7.644-8.929c3.959-2.126,8.261-3.092,12.619-3.914A8.243,8.243,0,0,1,228.091,100.576Z" transform="translate(-102.831 -50.424)"/>
    <path id="Path_271" data-name="Path 271" class="cls-2" d="M204.917,78.427c.169-4.387.523-8.74,3.117-12.509,2.9-4.208,7.31-5.971,12-7.226,1.459-.393,2.968-.6,4.442-.946,1.1-.254,1.693.149,1.374,1.23C223.934,65.47,223,72.381,218.088,77.62a16.157,16.157,0,0,1-11.3,5.518c-1.345.065-1.972-.339-1.882-1.748C204.966,80.414,204.917,79.418,204.917,78.427Z" transform="translate(-102.862 -28.947)"/>
    <path id="Path_272" data-name="Path 272" class="cls-2" d="M157.83,41.97c6.768,1.041,13.042,2.281,17.444,7.455a15.263,15.263,0,0,1,2.993,6.6c.662,3.167.608,6.479.861,9.73.115,1.484-.618,1.907-2.027,1.813a16.517,16.517,0,0,1-13.291-8.227C160.584,54.2,159.334,48.269,157.83,41.97Z" transform="translate(-79.235 -21.064)"/>
    <path id="Path_273" data-name="Path 273" class="cls-2" d="M198.354,35.271c-2.241-4.646-4.556-8.884-6.349-13.336-1.419-3.526-.822-7.3.493-10.791,1.285-3.421,2.868-6.738,4.437-10.044.7-1.479,1.325-1.464,2.176-.06,4.248,7.031,6.932,14.531,5.9,22.877A16.1,16.1,0,0,1,198.354,35.271Z" transform="translate(-95.981 0.011)"/>
    <path id="Path_274" data-name="Path 274" class="cls-2" d="M321.458,214.11c-.732,2.754-1.245,5.124-2,7.415-1.374,4.2-2.53,8.52-6.1,11.6-2.764,2.385-5.752,4.208-9.526,4.178-.563,0-1.589-.612-1.608-.981-.264-5.348-.139-10.687,3.3-15.2,2.893-3.8,7.226-5.124,11.633-6.185C318.425,214.633,319.72,214.439,321.458,214.11Z" transform="translate(-151.683 -107.482)"/>
    <path id="Path_275" data-name="Path 275" class="cls-2" d="M67.348,174.84c6.006,1.34,12.061,2.037,15.9,7.335a14.223,14.223,0,0,1,2.321,5.542,69.759,69.759,0,0,1,.787,8.67c.08,1.24-.423,1.967-1.887,1.768-6.3-.852-10.846-4.143-13.246-9.989-1.564-3.81-2.614-7.833-3.864-11.767A6.957,6.957,0,0,1,67.348,174.84Z" transform="translate(-33.79 -87.768)"/>
    <path id="Path_276" data-name="Path 276" class="cls-2" d="M127.182,201.849c-1.5,5.747-2.47,11.458-5.886,16.179a15.105,15.105,0,0,1-11.374,6.648c-1.325.1-2.057-.259-1.9-1.683.378-3.456.528-6.957,1.235-10.348a10.384,10.384,0,0,1,6.15-7.609,109.487,109.487,0,0,1,10.736-3.431C126.365,201.535,126.664,201.719,127.182,201.849Z" transform="translate(-54.219 -101.197)"/>
    <path id="Path_277" data-name="Path 277" class="cls-2" d="M128.747,162.063c-.991,3.321-1.972,6.648-2.973,9.965a19.191,19.191,0,0,1-6.489,9.711,15.752,15.752,0,0,1-8.022,3.112c-.9.12-1.713-.045-1.738-1.165-.095-5.084-.065-10.139,2.928-14.621,2.022-3.028,5.025-4.626,8.331-5.692,2.41-.777,4.915-1.26,7.375-1.872C128.354,161.689,128.548,161.878,128.747,162.063Z" transform="translate(-54.972 -81.071)"/>
    <path id="Path_278" data-name="Path 278" class="cls-2" d="M321.267,174.77c-.667,2.7-1.106,4.905-1.773,7.046-1.4,4.512-2.8,9.023-6.558,12.32a15.927,15.927,0,0,1-9.481,4c-.443.035-1.374-.667-1.354-.971.264-3.7.249-7.5,1.12-11.07,1.4-5.737,6.065-8.261,11.309-9.805C316.566,175.691,318.672,175.348,321.267,174.77Z" transform="translate(-151.662 -87.733)"/>
    <path id="Path_279" data-name="Path 279" class="cls-2" d="M278.84,180.443c0,.757.005,1.514,0,2.276-.02,2.6-.174,2.789-2.689,2.345a15.533,15.533,0,0,1-11.922-9.013c-1.838-3.984-2.848-8.346-4.2-12.549-.254-.787-.07-1.5.941-1.384,4.915.548,13.45,2.953,15.985,8.834A19.188,19.188,0,0,1,278.84,180.443Z" transform="translate(-130.489 -81.375)"/>
    <path id="Path_280" data-name="Path 280" class="cls-2" d="M280.2,220.182c0,.817.015,1.633-.005,2.445-.04,1.992-.254,2.241-2.281,1.932a15.45,15.45,0,0,1-12.5-9.467c-1.643-3.765-2.649-7.813-3.934-11.732-.388-1.18-.194-2.106,1.29-1.808,4.457.9,8.884,1.922,12.5,4.965,3.376,2.838,4.382,6.733,4.84,10.866.1.926.095,1.862.139,2.794A.138.138,0,0,1,280.2,220.182Z" transform="translate(-131.18 -101.15)"/>
    <path id="Path_281" data-name="Path 281" class="cls-2" d="M86.07,232.78c0,.991-.04,1.982.01,2.968.07,1.414-.637,1.858-1.937,1.728a14.667,14.667,0,0,1-12.365-8.515c-1.992-4.153-3.087-8.744-4.532-13.162-.279-.847-.015-1.628,1.1-1.369,4.243.986,8.55,1.793,12.171,4.492,3.824,2.853,5.049,6.937,5.463,11.409.075.807.01,1.628.01,2.445A.46.46,0,0,0,86.07,232.78Z" transform="translate(-33.708 -107.617)"/>
    <path id="Path_282" data-name="Path 282" class="cls-2" d="M261.482,124.6c7.176.832,14.939,3.157,16.857,10.657.852,3.331.817,6.9,1.115,10.363.1,1.145-.732,1.071-1.564.956a15.748,15.748,0,0,1-13.311-10.647c-1.235-3.257-2.087-6.663-3.082-10.009A5.18,5.18,0,0,1,261.482,124.6Z" transform="translate(-131.252 -62.546)"/>
    <path id="Path_283" data-name="Path 283" class="cls-2" d="M128.172,124.608c-.573,2.181-1.056,4.387-1.743,6.533-1.35,4.208-2.609,8.446-6.24,11.468a15.7,15.7,0,0,1-8.879,3.65c-.364.035-1.11-.5-1.125-.807-.244-4.083-.229-8.177,1.414-12.026,1.912-4.472,5.806-6.489,10.154-7.808,1.967-.6,4-.991,6-1.479C127.893,124.294,128.032,124.454,128.172,124.608Z" transform="translate(-55.259 -62.315)"/>
    <path id="Path_284" data-name="Path 284" class="cls-2" d="M87.245,155.481c0,.4.01.866,0,1.335-.075,3.526.707,3.929-3.859,2.833-6.04-1.449-9.556-5.687-11.4-11.424-.906-2.824-1.668-5.687-2.485-8.54-.249-.871-.119-1.648,1.011-1.424,4.576.9,9.173,1.783,12.673,5.279C86.488,146.836,87.186,151.014,87.245,155.481Z" transform="translate(-34.839 -69.385)"/>
    <path id="Path_285" data-name="Path 285" class="cls-2" d="M301.36,156.274a71.59,71.59,0,0,1,1.877-8.66c1.484-4.317,5.139-6.489,9.223-7.9a48.015,48.015,0,0,1,5.772-1.4c.9-.189,1.808-.035,1.444,1.215-1.5,5.184-2.465,10.6-5.976,14.974a13.915,13.915,0,0,1-9.6,5.448c-2.2.244-2.415.02-2.415-2.206v-1.4C301.579,156.324,301.47,156.3,301.36,156.274Z" transform="translate(-151.291 -69.397)"/>
    <path id="Path_286" data-name="Path 286" class="cls-2" d="M282.306,108.864c-.015,3.421-.712,3.984-3.411,3.192-5.617-1.648-9.352-5.2-10.941-10.916-.672-2.415-1.335-4.83-2.067-7.226-.428-1.389.139-1.977,1.424-1.723,4.088.817,8.107,2.057,11.269,4.81a9.651,9.651,0,0,1,3.092,6.215C281.908,105.3,282.142,107.39,282.306,108.864Z" transform="translate(-133.412 -46.248)"/>
    <path id="Path_287" data-name="Path 287" class="cls-2" d="M318.885,104.13c-1.185,4.915-2.077,9.4-4.4,13.356a13.782,13.782,0,0,1-10.741,6.932c-.468.055-1.464-.687-1.489-1.106-.3-5.03-.025-10.009,3.541-14,2.2-2.465,5.3-3.521,8.446-4.293C315.628,104.678,317.048,104.479,318.885,104.13Z" transform="translate(-151.695 -52.27)"/>
    <path id="Path_288" data-name="Path 288" class="cls-2" d="M125.573,91.99c-.707,2.654-1.245,4.9-1.9,7.1-1.355,4.556-3.187,8.884-7.634,11.254a24.958,24.958,0,0,1-5.936,1.813c-.339.08-1.245-.613-1.25-.951-.025-4.666-.189-9.387,2.988-13.346,2.629-3.277,6.429-4.263,10.213-5.269C123,92.344,123.994,92.254,125.573,91.99Z" transform="translate(-54.642 -46.175)"/>
    <path id="Path_289" data-name="Path 289" class="cls-2" d="M72.33,104.41a27.464,27.464,0,0,1,9.053,2.415c4.9,2.236,6.827,6.389,7.226,11.463.125,1.623.05,3.262.09,4.89.025,1.056-.388,1.394-1.484,1.295-5.542-.5-9.342-3.551-11.513-8.416-1.459-3.262-2.231-6.832-3.292-10.273A6.984,6.984,0,0,1,72.33,104.41Z" transform="translate(-36.312 -52.411)"/>
    <path id="Path_290" data-name="Path 290" class="cls-2" d="M297.5,86.217a12.347,12.347,0,0,1-1.394-2.082c-1.35-3.307-4.327-5.916-4.347-9.765-.015-2.829-.164-5.662,1.285-8.336,1.32-2.435,2.331-5.04,3.526-7.684C302.256,64.256,306.12,79.833,297.5,86.217Z" transform="translate(-146.465 -29.287)"/>
    <path id="Path_291" data-name="Path 291" class="cls-2" d="M99.161,85.67a10.34,10.34,0,0,1-4.641-6.489c-1.618-5.821-.269-11.309,2.241-16.6.762-1.608,1.618-3.172,2.684-5.259,1.2,2.236,2.286,3.984,3.087,5.851.772,1.808,1.24,3.75,1.847,5.627,1.26,3.879,0,7.35-1.763,10.721C101.547,81.557,100.361,83.539,99.161,85.67Z" transform="translate(-47.099 -28.77)"/>
    <path id="Path_292" data-name="Path 292" class="cls-3" d="M144.65,292.7,106.2,277.092a235.589,235.589,0,0,1,51.067-2.52,208.663,208.663,0,0,1,50.45,8.929C196.9,315.466,161.94,351.206,110.334,351.3c-51.7.085-87.569-35.735-98.544-69.951,1.783-.329,3.526-.7,5.284-.976a208.423,208.423,0,0,1,50.41-2.166c11.673,1.006,23.016,3.75,34.191,7.161a171.436,171.436,0,0,0,37.015,7.221c1.907.144,3.809.393,5.712.593C144.486,293.017,144.565,292.858,144.65,292.7Z" transform="translate(-5.919 -137.628)"/>
    <text id="United_States_Department_of_Agriculture" data-name="United States
Department of Agriculture" class="cls-4" transform="translate(246.913 89.185)"><tspan x="0" y="0">United States</tspan><tspan x="0" y="104">Department of Agriculture</tspan></text>
  </g>
</svg>
