<svg xmlns="http://www.w3.org/2000/svg" viewBox="0 0 432.369 595.02">
  <defs>
    <style>
      .cls-1 {
        fill: #344356;
        font-size: 101px;
        font-family: BrandonGrotesque-Regular, Brandon Grotesque;
        letter-spacing: 0.05em;
      }

      .cls-2 {
        fill: #fff;
      }

      .cls-3 {
        fill: #354456;
      }

      .cls-4 {
        fill: #759e4f;
      }
    </style>
  </defs>
  <g id="Group_261" data-name="Group 261" transform="translate(-1452 -1397.188)">
    <text id="USDA" class="cls-1" transform="translate(1523.258 1954.207)"><tspan x="0" y="0">USDA</tspan></text>
    <g id="blue_green_logo" data-name="blue &amp; green logo" transform="translate(1452 1397.188)">
      <path id="Path_263" data-name="Path 263" class="cls-2" d="M217.134,454.873c22.979.5,45.647-3.24,67.92-10.124a226.9,226.9,0,0,0,138.82-122c3.063-6.718,5.493-13.738,8.089-20.664,1.038-2.772.1-4.465-2.991-5.337-9.48-2.658-18.846-5.69-28.337-8.317-2.762-.768-3.717-2.025-3.676-4.818.135-8.764-.156-17.538.114-26.292.135-4.465-2.534-3.977-5.4-4.164-3.094-.2-4.392.727-4.309,4.05.187,8.027,0,16.064.083,24.1.031,2.856-.779,3.987-3.863,3.281-4.735-1.08-9.553-1.8-14.34-2.679-21.089-3.925-42.407-5.763-63.787-6.739-9.958-.457-19.958-.2-29.936-.135-2.471.01-3.551-.8-3.489-3.354.135-5.472-.052-10.955.208-16.427.145-3.136-.5-5-4.06-4.714a11.071,11.071,0,0,1-2.554-.062c-2.43-.363-3.3.716-3.25,3.063.083,3.769.021,7.549.021,11.318,0,10.9-.01,10.8-11.017,11.443a397.671,397.671,0,0,0-61.742,8.442c-6.895,1.506-13.769,3.094-20.684,4.465-5.5,1.09-7.507-.633-7.528-5.991-.021-7.061-.145-14.122-.083-21.173.021-2.243-.81-3.146-2.98-3.011a23.08,23.08,0,0,1-3.281.01c-2.617-.228-3.717.758-3.655,3.53.135,6.324.031,12.658,0,18.992-.031,4.475-.395,4.662-4.86,4.164-10.758-1.194-21.5-2.835-32.293-3.25a429.131,429.131,0,0,0-68.512,2.513c-2.9.353-3.987-.509-3.935-3.458.1-7.175-.114-14.371.062-21.546.083-3.25-1.142-4.257-4.278-4.164-5.15.145-5.69.332-5.732,4.3-.073,7.3-.218,14.61.062,21.91.145,3.624-1.2,4.839-4.621,5.358-8.172,1.225-16.292,2.835-24.433,4.289-2.451.436-3.479,1.267-2.544,4.174A230.888,230.888,0,0,0,37.589,366.87a223.294,223.294,0,0,0,79.83,65.138C148.654,447.251,181.757,455.5,217.134,454.873Zm-4.9-199.3c.177.031.353.052.54.083V259.3c0,.851,0,1.7.021,2.554.062,4.5.26,4.849,4.849,4.372,15.181-1.568,27-9.1,33.353-22.73,5.14-11.017,8.047-23.094,11.723-34.775,1.059-3.364.031-4.205-3.53-3.385-5.451,1.246-10.934,2.4-16.261,4.07-14.236,4.465-24.734,12.938-28.088,28.192C213.531,243.5,213.074,249.574,212.233,255.576Zm50.932-101.709c-.332-.426-.665-.862-1-1.288-7.456,1.973-15.067,3.479-22.315,6.023-10.4,3.655-18.784,9.937-23.228,20.622-4.486,10.789-4.174,22.055-3.769,33.342.031.758,1.911,2.149,2.845,2.087,15.783-1.142,27.932-8.681,34.848-22.741,4.558-9.262,7.082-19.522,10.4-29.376C261.92,159.723,262.449,156.764,263.166,153.867ZM158.124,187.261c.571,2.658.82,4.444,1.34,6.147q3.956,13.068,8.047,26.115c5.088,16.116,20.674,28.389,37.516,29.718,2.741.218,4.2-.561,4.05-3.551-.312-6.313-.187-12.668-.883-18.94-.893-8.068-3.292-15.752-8.878-21.962C188.538,192.817,173.627,190.542,158.124,187.261Zm48.9-1.765c.177-.021.363-.042.54-.073-.675-5.161-1.153-10.353-2.056-15.472-2.191-12.346-8.805-21.713-20.425-26.52-7.788-3.229-16.136-5.15-24.308-7.4-3.852-1.059-4.548-.3-3.458,3.51,2.6,9.107,4.912,18.327,8.2,27.185,6.552,17.652,18.981,28.358,38.2,30.373,2.492.26,3.364-.488,3.312-2.856C206.969,191.342,207.021,188.414,207.021,185.5Zm.1-49.676c-.623-5.42-.955-10.9-1.942-16.261-1.807-9.823-6.407-18.016-15.1-23.519-8.619-5.462-18.379-7.487-28.171-9.408-2.492-.488-3.562.758-2.824,3.1,3.25,10.3,5.763,20.955,10.135,30.767,5.41,12.149,14.693,20.695,28.5,23.073C206.792,145.134,206.792,145.155,207.125,135.82Zm54.068-31.255a17.182,17.182,0,0,0-3.177-.218c-9.075,1.713-18.057,3.728-26.312,8.162a32.658,32.658,0,0,0-15.939,18.618c-3.146,9.1-3.167,18.6-3.032,28.109.042,2.866,1.236,3.51,3.811,3.261a39.627,39.627,0,0,0,24.651-11.287c6.272-6.106,10.114-13.551,12.6-21.816C256.219,121.3,258.617,113.2,261.193,104.565Zm-48.388-1.4c0,2.066.114,4.143-.031,6.2-.2,2.928,1.121,3.78,3.925,3.645,9.532-.467,17.2-4.7,23.571-11.505,10.238-10.924,12.191-25.347,16.178-38.877.665-2.253-.571-3.1-2.866-2.565-3.074.716-6.22,1.163-9.262,1.973-9.771,2.617-18.971,6.293-25.014,15.067C213.895,84.939,213.157,94.015,212.8,103.163ZM163.887,43.581c3.136,13.136,5.742,25.5,12.481,36.219,6.293,10,15.42,16.313,27.714,17.154,2.939.208,4.465-.675,4.226-3.78-.519-6.781-.415-13.686-1.8-20.29-1.018-4.849-3.084-10.041-6.241-13.759C191.082,48.336,178,45.751,163.887,43.581Zm49.582,29.978c8.515-6.438,12.73-14.382,13.873-23.654,2.149-17.414-3.447-33.041-12.3-47.7-1.776-2.928-3.074-2.959-4.538.125-3.271,6.895-6.573,13.81-9.252,20.944-2.731,7.279-3.987,15.14-1.028,22.5C203.968,55.034,208.8,63.87,213.469,73.559ZM354.013,222.327c-3.624.7-6.324,1.09-8.972,1.734-9.19,2.212-18.223,4.974-24.256,12.9-7.165,9.408-7.414,20.539-6.874,31.691.042.768,2.181,2.046,3.354,2.046,7.871.062,14.1-3.738,19.864-8.712,7.445-6.428,9.854-15.441,12.71-24.194C351.417,233,352.487,228.059,354.013,222.327ZM69.976,181.55a13.631,13.631,0,0,0,.031,3.24c2.606,8.2,4.8,16.593,8.058,24.537,4.995,12.191,14.475,19.054,27.621,20.83,3.053.415,4.1-1.1,3.935-3.686-.395-6.043-.5-12.159-1.641-18.078a29.881,29.881,0,0,0-4.839-11.557C95.125,185.8,82.5,184.343,69.976,181.55Zm82.167,28.317c-1.08-.27-1.7-.654-2.17-.509-7.5,2.295-15.2,4.112-22.387,7.154a21.635,21.635,0,0,0-12.824,15.866c-1.474,7.061-1.8,14.371-2.575,21.578-.322,2.97,1.2,3.728,3.967,3.51,10.186-.779,18-5.94,23.716-13.862C146.992,233.76,149.017,221.85,152.143,209.867Zm1.693-41L152.6,167.7c-5.13,1.277-10.353,2.284-15.378,3.9-6.895,2.222-13.146,5.555-17.372,11.869-6.241,9.345-6.3,19.885-6.106,30.487.042,2.326,1.744,2.679,3.624,2.43,6.1-.82,11.806-2.544,16.728-6.49a40.017,40.017,0,0,0,13.53-20.248C149.723,182.734,151.769,175.808,153.835,168.871ZM353.66,181.477c-5.41,1.2-9.8,1.921-14.039,3.167-10.934,3.219-20.664,8.484-23.581,20.446-1.817,7.445-1.786,15.358-2.336,23.083-.042.644,1.9,2.108,2.824,2.025A33.275,33.275,0,0,0,336.3,221.86c7.819-6.884,10.747-16.282,13.675-25.69C351.344,191.716,352.258,187.105,353.66,181.477Zm-44.318,25.087c.156-10.4-1.7-14.558-3.956-19.8C300.1,174.5,282.3,169.484,272.054,168.342c-2.108-.228-2.482,1.246-1.963,2.887,2.824,8.764,4.932,17.86,8.764,26.167,4.766,10.322,13.405,16.77,24.859,18.795,5.244.924,5.576.53,5.607-4.891C309.342,209.732,309.342,208.143,309.342,206.565Zm1.391,41.629h.093c-.093-1.942-.073-3.894-.291-5.825-.966-8.608-3.063-16.739-10.093-22.657-7.539-6.345-16.77-8.484-26.063-10.353-3.094-.623-3.5,1.3-2.689,3.769,2.679,8.182,4.777,16.614,8.2,24.464,4.891,11.194,13.842,17.891,26.074,19.74,4.226.644,4.673.114,4.756-4.029C310.765,251.6,310.734,249.9,310.734,248.193ZM109.185,260.976h-.166c0-1.7.135-3.406-.021-5.1-.851-9.325-3.406-17.829-11.391-23.789-7.549-5.628-16.531-7.31-25.378-9.366-2.326-.54-2.876,1.08-2.295,2.856,3.011,9.2,5.3,18.774,9.449,27.444,4.984,10.384,13.9,16.583,25.783,17.756,2.71.27,4.185-.665,4.039-3.6C109.112,265.109,109.185,263.042,109.185,260.976ZM271.556,129.382a10.794,10.794,0,0,0,.031,2.752c2.077,6.978,3.852,14.08,6.428,20.871,4.828,12.731,14.112,20.28,27.756,22.2,1.724.249,3.458.4,3.26-1.994-.623-7.227-.55-14.662-2.326-21.609C302.707,135.965,286.519,131.116,271.556,129.382Zm-119.517.5c-.291-.332-.581-.654-.883-.986-4.174,1.018-8.411,1.838-12.512,3.084-9.075,2.752-17.2,6.957-21.172,16.282-3.427,8.027-3.458,16.552-2.949,25.077.042.633,1.589,1.755,2.347,1.682a32.656,32.656,0,0,0,18.514-7.611c7.57-6.3,10.207-15.14,13.011-23.914C149.837,139.028,150.845,134.428,152.039,129.88Zm-42.76,49.635c-.125-9.314-1.568-18.026-8.463-24.9-7.31-7.289-16.884-9.138-26.427-11.007-2.357-.457-2.627,1.163-2.108,2.97,1.693,5.94,3.292,11.921,5.181,17.808,3.842,11.962,11.173,20.8,23.768,23.82,9.522,2.284,7.892,1.433,8.047-5.908C109.3,181.322,109.278,180.346,109.278,179.515Zm203.646,1.63c.228.052.457.1.685.145v2.918c0,4.642.457,5.109,5.036,4.6,8.286-.914,14.859-4.922,20.02-11.36,7.321-9.138,9.325-20.415,12.461-31.224.758-2.6-1.142-2.928-3.011-2.534a100.129,100.129,0,0,0-12.035,2.918c-8.515,2.949-16.136,7.476-19.231,16.479C314.845,168.871,314.181,175.112,312.924,181.145Zm-2.451-50.59c-.343-3.074-.831-7.424-1.319-11.765a20.124,20.124,0,0,0-6.448-12.959c-6.6-5.742-14.984-8.328-23.5-10.031-2.669-.53-3.852.685-2.97,3.593,1.526,4.995,2.918,10.031,4.309,15.067,3.3,11.9,11.1,19.324,22.813,22.761C308.989,138.862,310.432,137.689,310.474,130.555Zm38.15-22.429c-3.832.716-6.791,1.142-9.678,1.848-6.563,1.609-13.021,3.811-17.611,8.951-7.435,8.328-8.027,18.712-7.383,29.189.052.872,2.129,2.419,3.1,2.305,9.761-1.163,17.434-5.991,22.4-14.454C344.283,127.72,346.152,118.375,348.624,108.126ZM147.906,95.52c-3.292.55-5.358.737-7.331,1.256-7.892,2.1-15.814,4.154-21.3,10.986-6.625,8.255-6.282,18.1-6.23,27.829,0,.706,1.89,2.149,2.606,1.983,4.2-1.007,8.629-1.786,12.377-3.78,9.273-4.943,13.094-13.977,15.918-23.467C145.3,105.728,146.432,101.055,147.906,95.52Zm-72.8,12.9a15.371,15.371,0,0,0,.166,2.866c2.212,7.175,3.821,14.62,6.864,21.422,4.538,10.145,12.46,16.489,24.007,17.549,2.295.208,3.146-.509,3.094-2.7-.083-3.4.073-6.812-.187-10.2-.82-10.571-4.86-19.241-15.067-23.9A57.334,57.334,0,0,0,75.106,108.417ZM314.939,118.7C332.913,105.385,324.866,72.9,313,60.589c-2.5,5.514-4.6,10.945-7.352,16.022-3.022,5.576-2.7,11.484-2.679,17.382.042,8.037,6.251,13.478,9.065,20.363A25.746,25.746,0,0,0,314.939,118.7Zm-206.377-.062c2.5-4.444,4.974-8.577,7.2-12.834,3.676-7.019,6.3-14.267,3.676-22.356-1.267-3.915-2.243-7.964-3.852-11.734-1.661-3.894-3.935-7.528-6.438-12.2-2.233,4.351-4.008,7.622-5.6,10.965-5.223,11.038-8.047,22.481-4.673,34.62C100.39,110.515,103.111,115.353,108.562,118.635Z" transform="translate(-0.001 0.012)"/>
      <path id="Path_264" data-name="Path 264" class="cls-3" d="M217.134,445.618c-35.367.613-68.47-7.622-99.715-22.876A223.294,223.294,0,0,1,37.589,357.6,230.888,230.888,0,0,1,.343,286.59c-.935-2.907.093-3.738,2.544-4.174,8.141-1.443,16.251-3.063,24.433-4.289,3.416-.509,4.756-1.734,4.621-5.358-.28-7.289-.135-14.6-.062-21.91.042-3.977.581-4.154,5.732-4.3,3.126-.083,4.351.914,4.278,4.164-.177,7.175.052,14.361-.062,21.546-.042,2.949,1.049,3.811,3.935,3.458a429.127,429.127,0,0,1,68.512-2.513c10.789.415,21.536,2.066,32.293,3.25,4.465.5,4.828.312,4.86-4.164.042-6.334.145-12.658,0-18.992-.062-2.772,1.049-3.759,3.655-3.53a21.633,21.633,0,0,0,3.281-.01c2.17-.125,3,.768,2.98,3.011-.073,7.061.062,14.122.083,21.173.021,5.348,2.025,7.071,7.528,5.991,6.916-1.371,13.79-2.959,20.684-4.465a397.842,397.842,0,0,1,61.742-8.442c11.017-.633,11.017-.54,11.017-11.443,0-3.769.073-7.549-.021-11.318-.052-2.347.82-3.427,3.25-3.063a11.057,11.057,0,0,0,2.554.062c3.551-.291,4.205,1.578,4.06,4.714-.26,5.462-.083,10.955-.208,16.427-.062,2.544,1.007,3.364,3.489,3.354,9.979-.062,19.978-.322,29.936.135,21.391.986,42.708,2.824,63.787,6.739,4.777.893,9.6,1.6,14.34,2.679,3.084.706,3.894-.426,3.863-3.281-.083-8.037.1-16.074-.083-24.1-.073-3.323,1.215-4.247,4.309-4.05,2.866.187,5.535-.312,5.4,4.164-.27,8.754.01,17.528-.114,26.292-.042,2.793.914,4.05,3.676,4.818,9.491,2.627,18.857,5.659,28.337,8.317,3.094.872,4.029,2.565,2.991,5.337-2.6,6.926-5.015,13.945-8.089,20.664a226.9,226.9,0,0,1-138.82,122C262.771,442.378,240.1,446.116,217.134,445.618Zm72.146-131.532c-.166.332-.343.665-.509,1-3.967-.415-7.933-.935-11.91-1.236-26.312-2.014-51.96-7.362-77.182-15.056-23.312-7.113-46.955-12.824-71.295-14.932-35.211-3.042-70.246-.966-105.115,4.517-3.665.571-7.3,1.34-11.017,2.035,22.875,71.347,97.68,146.038,205.474,145.861,107.617-.187,180.511-74.7,203.064-141.365-34.3-10.747-69.343-16.51-105.2-18.618a491.253,491.253,0,0,0-106.485,5.254C236.074,292.488,262.678,303.287,289.281,314.086Z" transform="translate(-0.001 9.267)"/>
      <path id="Path_265" data-name="Path 265" class="cls-3" d="M204.39,248c.841-5.991,1.3-12.076,2.6-17.974,3.354-15.243,13.852-23.727,28.088-28.192,5.327-1.672,10.809-2.824,16.261-4.07,3.572-.81,4.59.031,3.53,3.385-3.676,11.682-6.583,23.748-11.723,34.775-6.355,13.634-18.172,21.162-33.353,22.73-4.59.478-4.8.125-4.849-4.372-.01-.851-.01-1.7-.021-2.554v-3.645C204.743,248.049,204.567,248.018,204.39,248Z" transform="translate(7.842 7.591)"/>
      <path id="Path_266" data-name="Path 266" class="cls-3" d="M255.307,148.228c-.716,2.9-1.246,5.846-2.2,8.67-3.312,9.854-5.846,20.124-10.4,29.376-6.916,14.06-19.065,21.609-34.848,22.741-.935.073-2.824-1.319-2.845-2.087-.415-11.287-.716-22.554,3.769-33.342,4.444-10.685,12.824-16.967,23.228-20.622,7.248-2.544,14.859-4.05,22.315-6.023C254.642,147.376,254.975,147.8,255.307,148.228Z" transform="translate(7.857 5.651)"/>
      <path id="Path_267" data-name="Path 267" class="cls-3" d="M152.28,180.34c15.5,3.281,30.4,5.566,41.182,17.528,5.6,6.21,8,13.894,8.878,21.962.7,6.272.571,12.627.883,18.94.145,2.991-1.308,3.769-4.05,3.551-16.842-1.329-32.428-13.6-37.516-29.718q-4.112-13.021-8.047-26.115C153.1,184.784,152.851,183,152.28,180.34Z" transform="translate(5.842 6.933)"/>
      <path id="Path_268" data-name="Path 268" class="cls-3" d="M201.224,180.484c0,2.918-.042,5.836.01,8.754.052,2.367-.82,3.115-3.312,2.856-19.22-2.025-31.639-12.731-38.2-30.373-3.292-8.857-5.607-18.089-8.2-27.185-1.09-3.811-.395-4.569,3.458-3.51,8.172,2.253,16.51,4.174,24.308,7.4,11.619,4.808,18.234,14.174,20.425,26.52.9,5.119,1.381,10.311,2.056,15.472Z" transform="translate(5.795 5.024)"/>
      <path id="Path_269" data-name="Path 269" class="cls-3" d="M201.254,132.622c-.332,9.335-.332,9.314-9.408,7.757-13.81-2.378-23.093-10.924-28.5-23.073-4.372-9.813-6.884-20.456-10.135-30.767-.737-2.347.332-3.593,2.824-3.1,9.792,1.921,19.553,3.946,28.171,9.408,8.691,5.5,13.291,13.7,15.1,23.519C200.309,121.709,200.631,127.191,201.254,132.622Z" transform="translate(5.869 3.21)"/>
      <path id="Path_270" data-name="Path 270" class="cls-3" d="M253.332,100.709c-2.575,8.639-4.974,16.739-7.4,24.828-2.482,8.255-6.324,15.711-12.6,21.816a39.682,39.682,0,0,1-24.651,11.287c-2.575.249-3.769-.395-3.811-3.261-.135-9.5-.114-19,3.032-28.109a32.658,32.658,0,0,1,15.939-18.618c8.255-4.434,17.227-6.448,26.312-8.162A17.184,17.184,0,0,1,253.332,100.709Z" transform="translate(7.859 3.867)"/>
      <path id="Path_271" data-name="Path 271" class="cls-3" d="M204.942,100.95c.353-9.148,1.09-18.224,6.5-26.084,6.043-8.774,15.243-12.45,25.014-15.067,3.042-.82,6.189-1.256,9.262-1.973,2.295-.53,3.53.312,2.866,2.565-3.987,13.54-5.939,27.953-16.178,38.877-6.376,6.812-14.039,11.038-23.571,11.505-2.8.135-4.112-.706-3.925-3.645C205.046,105.093,204.942,103.016,204.942,100.95Z" transform="translate(7.861 2.225)"/>
      <path id="Path_272" data-name="Path 272" class="cls-3" d="M157.83,41.97c14.111,2.17,27.2,4.756,36.374,15.545a31.827,31.827,0,0,1,6.241,13.759c1.381,6.6,1.267,13.509,1.8,20.29.239,3.094-1.288,3.977-4.226,3.78-12.284-.851-21.422-7.154-27.714-17.154C163.572,67.473,160.966,55.106,157.83,41.97Z" transform="translate(6.055 1.623)"/>
      <path id="Path_273" data-name="Path 273" class="cls-3" d="M206.132,73.559c-4.673-9.688-9.5-18.525-13.239-27.808-2.959-7.352-1.713-15.212,1.028-22.5C196.6,16.116,199.9,9.2,203.173,2.306c1.464-3.084,2.762-3.053,4.538-.125,8.857,14.662,14.454,30.3,12.3,47.7C218.873,59.178,214.657,67.121,206.132,73.559Z" transform="translate(7.335 0.011)"/>
      <path id="Path_274" data-name="Path 274" class="cls-3" d="M342.418,214.11c-1.526,5.742-2.6,10.685-4.164,15.462-2.866,8.754-5.275,17.767-12.71,24.194-5.763,4.974-11.993,8.774-19.864,8.712-1.173-.01-3.312-1.277-3.354-2.046-.55-11.152-.291-22.284,6.874-31.691,6.033-7.923,15.067-10.685,24.257-12.9C336.095,215.2,338.794,214.8,342.418,214.11Z" transform="translate(11.593 8.229)"/>
      <path id="Path_275" data-name="Path 275" class="cls-3" d="M67.393,174.84c12.523,2.793,25.149,4.247,33.155,15.3a29.658,29.658,0,0,1,4.839,11.557c1.142,5.919,1.246,12.035,1.641,18.078.166,2.586-.883,4.1-3.935,3.686-13.135-1.776-22.616-8.639-27.621-20.83-3.26-7.944-5.451-16.334-8.058-24.537A14.506,14.506,0,0,1,67.393,174.84Z" transform="translate(2.582 6.722)"/>
      <path id="Path_276" data-name="Path 276" class="cls-3" d="M148,202.13c-3.126,11.983-5.15,23.893-12.274,33.737-5.721,7.923-13.54,13.073-23.716,13.862-2.762.208-4.288-.54-3.967-3.51.789-7.206,1.1-14.506,2.575-21.578a21.654,21.654,0,0,1,12.824-15.866c7.186-3.042,14.89-4.86,22.387-7.154C146.3,201.476,146.918,201.86,148,202.13Z" transform="translate(4.143 7.749)"/>
      <path id="Path_277" data-name="Path 277" class="cls-3" d="M149.633,162.673c-2.066,6.926-4.112,13.862-6.2,20.778A40.017,40.017,0,0,1,129.9,203.7c-4.932,3.946-10.643,5.67-16.728,6.49-1.879.249-3.572-.093-3.624-2.43-.2-10.6-.135-21.141,6.106-30.487,4.216-6.313,10.477-9.647,17.372-11.869,5.026-1.62,10.249-2.627,15.378-3.9C148.813,161.895,149.218,162.289,149.633,162.673Z" transform="translate(4.201 6.21)"/>
      <path id="Path_278" data-name="Path 278" class="cls-3" d="M342.067,174.77c-1.391,5.628-2.305,10.228-3.7,14.693-2.918,9.408-5.846,18.815-13.675,25.69a33.211,33.211,0,0,1-19.771,8.338c-.924.073-2.866-1.391-2.824-2.025.55-7.726.519-15.638,2.336-23.083,2.918-11.962,12.647-17.227,23.581-20.446C332.265,176.691,336.657,175.975,342.067,174.77Z" transform="translate(11.592 6.72)"/>
      <path id="Path_279" data-name="Path 279" class="cls-3" d="M299.368,200.343c0,1.578.01,3.157,0,4.745-.042,5.42-.363,5.815-5.607,4.891-11.453-2.025-20.093-8.473-24.859-18.795-3.832-8.307-5.94-17.4-8.764-26.167-.53-1.641-.145-3.126,1.963-2.887,10.249,1.142,28.047,6.158,33.332,18.421C297.665,185.785,299.523,189.949,299.368,200.343Z" transform="translate(9.973 6.233)"/>
      <path id="Path_280" data-name="Path 280" class="cls-3" d="M300.706,240.46c0,1.7.031,3.406-.01,5.1-.083,4.154-.53,4.673-4.756,4.029-12.232-1.848-21.193-8.546-26.074-19.74-3.427-7.85-5.524-16.292-8.2-24.464-.81-2.461-.405-4.392,2.689-3.769,9.293,1.869,18.525,4.008,26.063,10.353,7.04,5.919,9.138,14.039,10.093,22.657.218,1.931.2,3.884.291,5.825A.288.288,0,0,1,300.706,240.46Z" transform="translate(10.026 7.745)"/>
      <path id="Path_281" data-name="Path 281" class="cls-3" d="M106.608,252.748c0,2.066-.083,4.133.021,6.189.145,2.949-1.329,3.873-4.039,3.6-11.869-1.173-20.8-7.372-25.783-17.756-4.153-8.66-6.438-18.234-9.449-27.444-.581-1.765-.031-3.4,2.295-2.856,8.847,2.056,17.829,3.738,25.378,9.366,7.975,5.95,10.529,14.465,11.391,23.789.156,1.682.021,3.4.021,5.1A.954.954,0,0,0,106.608,252.748Z" transform="translate(2.575 8.24)"/>
      <path id="Path_282" data-name="Path 282" class="cls-3" d="M261.523,124.6c14.963,1.734,31.151,6.583,35.149,22.221,1.776,6.947,1.7,14.382,2.326,21.609.208,2.388-1.526,2.232-3.26,1.994-13.644-1.931-22.927-9.48-27.756-22.2-2.575-6.791-4.351-13.894-6.428-20.871A10.8,10.8,0,0,1,261.523,124.6Z" transform="translate(10.032 4.794)"/>
      <path id="Path_283" data-name="Path 283" class="cls-3" d="M147.815,125.116c-1.194,4.548-2.2,9.148-3.634,13.624-2.814,8.774-5.441,17.611-13.011,23.914a32.728,32.728,0,0,1-18.514,7.611c-.758.073-2.316-1.049-2.347-1.682-.509-8.515-.478-17.05,2.949-25.077,3.987-9.325,12.107-13.53,21.172-16.282,4.1-1.246,8.338-2.066,12.512-3.084C147.233,124.462,147.524,124.794,147.815,125.116Z" transform="translate(4.223 4.776)"/>
      <path id="Path_284" data-name="Path 284" class="cls-3" d="M106.615,174.21c0,.841.021,1.807,0,2.783-.156,7.352,1.474,8.193-8.047,5.908-12.6-3.022-19.926-11.858-23.768-23.82-1.89-5.888-3.479-11.858-5.181-17.808-.519-1.817-.249-3.437,2.108-2.97,9.543,1.869,19.127,3.717,26.427,11.007C105.037,156.184,106.491,164.9,106.615,174.21Z" transform="translate(2.662 5.317)"/>
      <path id="Path_285" data-name="Path 285" class="cls-3" d="M301.36,175.84c1.256-6.033,1.931-12.274,3.915-18.057,3.094-9,10.716-13.53,19.231-16.479a100.128,100.128,0,0,1,12.035-2.918c1.869-.395,3.769-.073,3.011,2.534-3.136,10.81-5.14,22.1-12.46,31.224-5.161,6.438-11.734,10.446-20.02,11.36-4.59.509-5.036.042-5.036-4.6v-2.918C301.817,175.943,301.588,175.891,301.36,175.84Z" transform="translate(11.563 5.318)"/>
      <path id="Path_286" data-name="Path 286" class="cls-3" d="M300.276,127.019c-.031,7.134-1.485,8.307-7.113,6.656-11.713-3.437-19.5-10.851-22.813-22.761-1.4-5.036-2.783-10.072-4.309-15.067-.893-2.9.291-4.122,2.97-3.593,8.525,1.7,16.9,4.289,23.5,10.031a20.124,20.124,0,0,1,6.448,12.959C299.445,119.6,299.933,123.946,300.276,127.019Z" transform="translate(10.197 3.548)"/>
      <path id="Path_287" data-name="Path 287" class="cls-3" d="M337.028,104.13c-2.471,10.249-4.33,19.594-9.169,27.849-4.953,8.463-12.637,13.291-22.4,14.454-.976.114-3.053-1.433-3.1-2.305-.633-10.488-.052-20.871,7.383-29.189,4.59-5.14,11.059-7.341,17.611-8.951C330.237,105.272,333.2,104.857,337.028,104.13Z" transform="translate(11.594 4.008)"/>
      <path id="Path_288" data-name="Path 288" class="cls-3" d="M143.729,91.99c-1.474,5.535-2.6,10.207-3.967,14.807-2.824,9.5-6.646,18.525-15.918,23.467-3.738,1.994-8.182,2.772-12.377,3.78-.706.166-2.6-1.277-2.606-1.983-.052-9.73-.395-19.573,6.23-27.829,5.483-6.833,13.405-8.889,21.3-10.986C138.371,92.727,140.438,92.54,143.729,91.99Z" transform="translate(4.176 3.542)"/>
      <path id="Path_289" data-name="Path 289" class="cls-3" d="M72.33,104.41a57.266,57.266,0,0,1,18.878,5.036c10.207,4.662,14.236,13.322,15.067,23.9.26,3.385.1,6.8.187,10.2.052,2.2-.81,2.907-3.094,2.7-11.557-1.049-19.48-7.4-24.007-17.549-3.042-6.8-4.652-14.247-6.864-21.422A14.565,14.565,0,0,1,72.33,104.41Z" transform="translate(2.774 4.019)"/>
      <path id="Path_290" data-name="Path 290" class="cls-3" d="M303.743,116.458a25.748,25.748,0,0,1-2.907-4.34c-2.814-6.895-9.023-12.336-9.065-20.363-.031-5.9-.343-11.806,2.679-17.382,2.752-5.078,4.86-10.508,7.352-16.022C313.66,70.665,321.718,103.146,303.743,116.458Z" transform="translate(11.194 2.251)"/>
      <path id="Path_291" data-name="Path 291" class="cls-3" d="M104.962,116.435c-5.451-3.281-8.172-8.12-9.678-13.53-3.375-12.139-.561-23.582,4.673-34.62,1.589-3.354,3.375-6.614,5.6-10.965,2.492,4.662,4.766,8.307,6.438,12.2,1.609,3.769,2.586,7.819,3.852,11.734,2.627,8.089,0,15.326-3.676,22.356C109.936,107.858,107.464,111.991,104.962,116.435Z" transform="translate(3.599 2.212)"/>
      <path id="Path_292" data-name="Path 292" class="cls-4" d="M288.828,312.819c-26.6-10.8-53.206-21.6-80.173-32.543a491.249,491.249,0,0,1,106.485-5.254c35.845,2.108,70.9,7.871,105.2,18.618-22.553,66.654-95.458,141.178-203.064,141.365-107.8.177-182.6-74.514-205.484-145.861,3.717-.685,7.352-1.454,11.017-2.035,34.869-5.483,69.9-7.549,105.115-4.517,24.34,2.1,47.994,7.819,71.295,14.932,25.222,7.694,50.87,13.042,77.182,15.057,3.977.3,7.944.82,11.91,1.236C288.486,313.484,288.652,313.151,288.828,312.819Z" transform="translate(0.451 10.534)"/>
    </g>
  </g>
</svg>
